<svg width="318" height="78" viewBox="0 0 318 78" fill="none" xmlns="http://www.w3.org/2000/svg">
<g id="Tickmarks" clip-path="url(#EHFZRVUBJQclip0)">
<g id="secondary-tick-marks">
<path id="Tickmarks_2" d="M159 7V71M166.975 7V71M174.95 7V71M182.925 7V71M190.9 7V71M198.875 7V71M206.85 7V71M214.825 7V71M222.8 7V71M230.775 7V71M238.75 7V71M246.725 7V71M254.7 7V71M262.675 7V71M270.65 7V71M278.625 7V71M294.575 7V71M310.525 7V71M286.6 7V71M302.55 7V71M318.5 7V71M143.05 7V71M151.025 7V71M127.1 7V71M135.075 7V71M111.15 7V71M119.125 7V71M95.2 7V71M103.175 7V71M79.25 7V71M87.225 7V71M63.3 7V71M47.35 7V71M31.4 7V71M15.45 7V71M-0.5 7V71M7.475 7V71M23.425 7V71M39.375 7V71M55.325 7V71M71.275 7V71" class="ob-instrument-tick-mark-tertiary-color-stroke"/>
</g>
<g id="primary-tick-marks">
<path id="Tickmarks_3" d="M159 0V78M198.875 0V78M238.75 0V78M278.625 0V78M318.5 0V78M119.125 0V78M79.25 0V78M39.375 0V78M-0.5 0V78" class="ob-instrument-tick-mark-secondary-color-stroke"/>
</g>
</g>
<defs>
<clipPath id="EHFZRVUBJQclip0">
<rect width="318" height="78" fill="white"/>
</clipPath>
</defs>
</svg>