<svg width="416" height="416" viewBox="0 0 416 416" fill="none" xmlns="http://www.w3.org/2000/svg">
<g id="Degree=1°, Tick size=Primary">
<path id="Tickmarks" d="M208 0V32M208 384V416M0 208H32M384 208H416M204.37 0.0317383L204.928 32.0269M211.071 383.973L211.63 415.969M0.03125 211.63L32.0264 211.072M383.973 204.928L415.968 204.37M200.741 0.126709L201.858 32.1072M214.143 383.893L215.259 415.873M0.126953 215.259L32.1075 214.142M383.893 201.858L415.874 200.741M197.114 0.284912L198.789 32.2411M217.211 383.759L218.886 415.715M0.285156 218.886L32.2413 217.211M383.759 198.789L415.715 197.114M193.491 0.506836L195.723 32.4289M220.277 383.571L222.51 415.493M0.506836 222.51L32.4289 220.277M383.571 195.723L415.493 193.491M189.872 0.791504L192.661 32.6697M223.339 383.33L226.128 415.209M0.791504 226.128L32.6697 223.339M383.33 192.661L415.208 189.872M186.258 1.1394L189.603 32.9641M226.397 383.036L229.742 414.861M1.13916 229.742L32.9639 226.397M383.036 189.603L414.86 186.258M182.651 1.55029L186.551 33.3118M229.449 382.688L233.349 414.449M1.55029 233.349L33.3118 229.449M382.688 186.551L414.449 182.651M179.052 2.02417L183.505 33.7127M232.495 382.287L236.948 413.976M2.02441 236.948L33.713 232.494M382.287 183.505L413.976 179.052M175.461 2.56079L180.467 34.1668M235.533 381.833L240.539 413.439M2.56104 240.538L34.1671 235.532M381.833 180.468L413.439 175.462M171.881 3.15991L177.438 34.6738M238.562 381.326L244.119 412.84M3.16016 244.119L34.674 238.562M381.327 177.438L412.841 171.881M168.312 3.82153L174.417 35.2336M241.583 380.766L247.688 412.178M3.82178 247.688L35.2338 241.582M380.767 174.417L412.179 168.312M164.754 4.54541L171.408 35.8461M244.593 380.154L251.246 411.455M4.54541 251.246L35.8461 244.592M380.154 171.408L411.455 164.755M161.21 5.33105L168.409 36.5109M247.592 379.489L254.79 410.669M5.33154 254.79L36.5114 247.591M379.489 168.409L410.669 161.21M157.68 6.17847L165.422 37.2279M250.579 378.772L258.32 409.821M6.17871 258.32L37.2282 250.578M378.772 165.422L409.821 157.68M154.166 7.0874L162.448 37.997M253.552 378.003L261.834 408.913M7.0874 261.834L37.997 253.552M378.003 162.448L408.913 154.166M150.667 8.05762L159.488 38.818M256.512 377.182L265.333 407.943M8.05762 265.333L38.818 256.512M377.182 159.488L407.943 150.667M147.187 9.08862L156.543 39.6904M259.458 376.31L268.813 406.911M9.08887 268.813L39.6906 259.457M376.31 156.542L406.911 147.187M143.725 10.1802L153.613 40.614M262.387 375.386L272.276 405.82M10.1802 272.276L40.614 262.387M375.386 153.613L405.82 143.724M140.282 11.332L150.7 41.5886M265.3 374.411L275.718 404.668M11.332 275.718L41.5886 265.3M374.411 150.7L404.668 140.282M136.86 12.5439L147.805 42.6141M268.196 373.386L279.14 403.456M12.5439 279.14L42.6141 268.195M373.386 147.804L403.456 136.86M133.459 13.8154L144.927 43.69M271.072 372.31L282.54 402.185M13.8149 282.541L43.6895 271.073M372.31 144.927L402.185 133.46M130.081 15.1458L142.068 44.8156M273.93 371.184L285.918 400.854M15.145 285.918L44.8149 273.931M371.184 142.069L400.853 130.082M126.728 16.5352L139.231 45.9913M276.769 370.009L289.272 399.465M16.5347 289.272L45.9908 276.769M370.009 139.231L399.465 126.728M123.398 17.9824L136.414 47.2159M279.585 368.784L292.601 398.017M17.9819 292.601L47.2154 279.586M368.784 136.414L398.017 123.399M120.095 19.488L133.619 48.4899M282.38 367.51L295.904 396.512M19.4878 295.905L48.4896 282.381M367.51 133.619L396.512 120.095M116.818 21.0508L130.846 49.8122M285.153 366.188L299.181 394.949M21.0503 299.181L49.8117 285.153M366.188 130.847L394.949 116.819M113.57 22.6707L128.098 51.1829M287.902 364.817L302.43 393.329M22.6704 302.43L51.1826 287.902M364.817 128.098L393.329 113.57M110.35 24.3469L125.373 52.6012M290.626 363.399L305.65 391.653M24.3462 305.65L52.6005 290.627M363.398 125.373L391.653 110.35M107.159 26.0791L122.673 54.0669M293.326 361.933L308.84 389.921M26.0786 308.84L54.0664 293.326M361.933 122.673L389.92 107.159M104 27.8667L120 55.5795M296 360.42L312 388.133M27.8662 312L55.579 296M360.42 120L388.133 104M100.872 29.7092L117.353 57.1386M298.646 358.862L315.128 386.291M29.709 315.128L57.1383 298.647M358.861 117.353L386.291 100.872M97.7764 31.606L114.734 58.7435M301.265 357.256L318.223 384.394M31.6055 318.223L58.743 301.266M357.256 114.734L384.393 97.7767M94.7148 33.5564L112.143 60.3939M303.856 355.606L321.285 382.443M33.5566 321.285L60.3941 303.856M355.606 112.143L382.443 94.7149M91.6875 35.5603L109.582 62.0895M306.417 353.911L324.312 380.44M35.5596 324.312L62.0888 306.418M353.91 109.582L380.439 91.6879M88.6958 37.6162L107.05 63.8291M308.949 352.171L327.304 378.384M37.6157 327.304L63.8286 308.949M352.17 107.051L378.383 88.6961M85.7402 39.7246L104.549 65.6132M311.45 350.387L330.259 376.276M39.7241 330.26L65.6127 311.45M350.387 104.55L376.275 85.7407M82.8218 41.8838L102.08 67.4401M313.919 348.56L333.177 374.116M41.8833 333.177L67.4396 313.919M348.559 102.081L374.115 82.8225M79.9419 44.0938L99.6431 69.3101M316.356 346.69L336.057 371.906M44.0933 336.058L69.3096 316.356M346.689 99.6436L371.906 79.9424M77.1011 46.3538L97.2393 71.2224M318.76 344.778L338.898 369.647M46.353 338.899L71.2217 318.761M344.777 97.2397L369.646 77.1015M74.2998 48.6628L94.869 73.1763M321.13 342.824L341.699 367.337M48.6621 341.7L73.1755 321.13M342.823 94.8694L367.337 74.3002M71.5391 51.0203L92.533 75.171M323.466 340.829L344.46 364.979M51.02 344.46L75.1707 323.466M340.828 92.5334L364.979 71.5396M68.8203 53.4258L90.2325 77.2064M325.766 338.793L347.178 362.574M53.4253 347.179L77.2059 325.767M338.793 90.2329L362.574 68.8207M66.144 55.8784L87.968 79.2817M328.031 336.718L349.855 360.122M55.8779 349.856L79.2812 328.032M336.718 87.9683L360.121 66.1443M63.5103 58.3772L85.7393 81.3961M330.259 334.604L352.488 357.623M58.3765 352.489L81.3953 330.26M334.603 85.74L357.622 63.5109M60.9209 60.9219L83.5483 83.5493M332.45 332.451L355.078 355.078M60.9209 355.078L83.5483 332.451M332.45 83.5493L355.078 60.9219M58.3765 63.5112L81.3953 85.7403M334.603 330.26L357.622 352.489M63.5103 357.623L85.7393 334.604M330.259 81.3962L352.488 58.3774M55.8774 66.1443L79.2808 87.9682M336.717 328.032L360.121 349.856M66.1436 360.122L87.9675 336.718M328.031 79.2817L349.855 55.8784M53.4253 68.8206L77.2059 90.2327M338.793 325.767L362.574 347.179M68.8203 362.574L90.2325 338.793M325.767 77.2063L347.179 53.4257M51.02 71.5398L75.1707 92.5337M340.828 323.466L364.979 344.46M71.5391 364.979L92.533 340.829M323.466 75.1711L344.46 51.0204M48.6621 74.3L73.1755 94.8693M342.823 321.13L367.337 341.7M74.2998 367.337L94.869 342.823M321.13 73.176L341.699 48.6626M46.353 77.1013L71.2217 97.2396M344.777 318.76L369.646 338.898M77.1011 369.646L97.2393 344.778M318.76 71.2222L338.898 46.3535M44.0933 79.9424L69.3096 99.6436M346.689 316.356L371.906 336.058M79.9419 371.906L99.6431 346.69M316.356 69.3101L336.057 44.0937M41.8838 82.8225L67.4401 102.081M348.56 313.919L374.116 333.178M82.8223 374.116L102.08 348.56M313.919 67.4402L333.177 41.8839M39.7241 85.7407L65.6127 104.55M350.387 311.45L376.275 330.26M85.7402 376.276L104.549 350.387M311.45 65.6133L330.259 39.7247M37.6157 88.696L63.8286 107.05M352.17 308.949L378.383 327.304M88.6958 378.384L107.05 352.171M308.949 63.8291L327.304 37.6162M35.5596 91.688L62.0888 109.582M353.91 306.418L380.439 324.312M91.6875 380.44L109.582 353.91M306.417 62.0894L324.312 35.5602M33.5562 94.7151L60.3936 112.144M355.605 303.856L382.443 321.285M94.7144 382.443L112.143 355.606M303.856 60.3938L321.284 33.5563M31.6055 97.7769L58.743 114.734M357.256 301.266L384.393 318.223M97.7764 384.394L114.734 357.257M301.265 58.7437L318.223 31.6061M29.7085 100.872L57.1378 117.353M358.861 298.647L386.29 315.128M100.872 386.291L117.353 358.861M298.646 57.1384L315.127 29.7091M27.8662 104L55.579 120M360.42 296L388.133 312M104 388.133L120 360.42M296 55.5796L312 27.8668M26.0786 107.159L54.0664 122.673M361.933 293.326L389.92 308.84M107.159 389.921L122.673 361.933M293.326 54.0667L308.84 26.0788M24.3462 110.35L52.6005 125.373M363.398 290.627L391.653 305.65M110.35 391.653L125.373 363.399M290.626 52.6011L305.65 24.3468M22.6704 113.57L51.1826 128.098M364.817 287.902L393.329 302.43M113.57 393.329L128.098 364.817M287.902 51.1826L302.43 22.6704M21.0503 116.818L49.8117 130.846M366.188 285.153L394.949 299.181M116.818 394.949L130.846 366.187M285.153 49.8118L299.181 21.0504M19.4878 120.095L48.4896 133.619M367.51 282.381L396.512 295.905M120.095 396.512L133.619 367.51M282.38 48.4897L295.904 19.4879M17.9819 123.399L47.2154 136.414M368.784 279.585L398.017 292.601M123.398 398.017L136.414 368.784M279.585 47.2158L292.601 17.9824M16.5342 126.728L45.9903 139.231M370.008 276.769L399.464 289.272M126.727 399.465L139.23 370.009M276.768 45.991L289.271 16.5348M15.145 130.082L44.8149 142.069M371.184 273.931L400.853 285.918M130.081 400.854L142.068 371.184M273.93 44.8157L285.918 15.1458M13.8149 133.459L43.6895 144.927M372.31 271.073L402.185 282.54M133.459 402.185L144.927 372.31M271.072 43.6897L282.54 13.8151M12.5435 136.86L42.6136 147.805M373.385 268.196L403.455 279.14M136.859 403.456L147.804 373.386M268.195 42.6143L279.14 12.5441M11.332 140.282L41.5886 150.7M374.411 265.3L404.668 275.718M140.282 404.668L150.7 374.411M265.3 41.5889L275.718 11.3323M10.1797 143.724L40.6135 153.613M375.386 262.387L405.82 272.276M143.724 405.82L153.613 375.386M262.387 40.614L272.275 10.1802M9.08838 147.187L39.6901 156.543M376.309 259.458L406.911 268.813M147.187 406.911L156.542 376.31M259.457 39.6904L268.813 9.08868M8.05713 150.667L38.8175 159.488M377.182 256.512L407.942 265.333M150.667 407.942L159.487 377.182M256.512 38.8179L265.332 8.0575M7.0874 154.166L37.997 162.448M378.003 253.552L408.913 261.834M154.166 408.913L162.448 378.003M253.552 37.9971L261.834 7.08744M6.17822 157.68L37.2277 165.422M378.771 250.578L409.821 258.32M157.68 409.822L165.421 378.772M250.578 37.228L258.32 6.17856M5.33105 161.21L36.5109 168.409M379.489 247.591L410.669 254.79M161.21 410.669L168.408 379.489M247.591 36.511L254.79 5.33114M4.54492 164.754L35.8456 171.408M380.154 244.592L411.455 251.245M164.754 411.455L171.407 380.154M244.592 35.8459L251.245 4.54522M3.82129 168.312L35.2334 174.417M380.766 241.582L412.178 247.688M168.311 412.178L174.417 380.766M241.582 35.2334L247.688 3.82133M3.15967 171.881L34.6735 177.438M381.326 238.562L412.84 244.119M171.881 412.84L177.438 381.326M238.562 34.6738L244.119 3.15998M2.56055 175.462L34.1666 180.468M381.833 235.532L413.439 240.538M175.461 413.439L180.467 381.833M235.532 34.167L240.538 2.56096M2.02393 179.052L33.7125 183.506M382.287 232.495L413.975 236.948M179.051 413.976L183.505 382.287M232.494 33.7129L236.948 2.02431M1.5498 182.651L33.3113 186.551M382.688 229.449L414.449 233.349M182.651 414.45L186.551 382.688M229.449 33.312L233.349 1.55054M1.13867 186.258L32.9634 189.603M383.035 226.397L414.86 229.742M186.257 414.861L189.602 383.036M226.396 32.9641L229.741 1.13941M0.791504 189.872L32.6697 192.661M383.33 223.339L415.208 226.128M189.872 415.208L192.661 383.33M223.339 32.6697L226.128 0.791447M0.506348 193.491L32.4284 195.723M383.571 220.277L415.493 222.51M193.49 415.493L195.722 383.571M220.277 32.429L222.509 0.506905M0.284668 197.114L32.2408 198.789M383.758 217.211L415.714 218.886M197.114 415.715L198.789 383.759M217.211 32.2412L218.886 0.285067M0.126953 200.741L32.1075 201.858M383.893 214.142L415.874 215.259M200.741 415.873L201.858 383.893M214.143 32.1072L215.259 0.126671M0.03125 204.37L32.0264 204.928M383.973 211.072L415.968 211.63M204.37 415.968L204.928 383.973M211.071 32.0266L211.63 0.0314846" stroke="#333333" class="ob-instrument-tick-mark-primary-color-stroke"/>
</g>
</svg>