<svg width="416" height="416" viewBox="0 0 416 416" fill="none" xmlns="http://www.w3.org/2000/svg">
<g id="Degree=9°, Tick size=Primary">
<path id="Tickmarks" d="M208 0V32M208 384V416M0 208H32M384 208H416M175.461 2.56104L180.467 34.1671M235.533 381.833L240.539 413.439M2.56104 240.539L34.1671 235.533M381.833 180.468L413.439 175.462M143.725 10.1802L153.613 40.614M262.387 375.386L272.276 405.82M10.1802 272.276L40.614 262.387M375.386 153.613L405.82 143.724M113.57 22.6707L128.098 51.1829M287.902 364.817L302.43 393.329M22.6704 302.43L51.1826 287.902M364.817 128.098L393.329 113.57M85.7402 39.7246L104.549 65.6132M311.45 350.387L330.259 376.276M39.7241 330.26L65.6127 311.45M350.387 104.55L376.275 85.7407M60.9214 60.9219L83.5488 83.5493M332.45 332.451L355.078 355.078M60.9214 355.078L83.5488 332.451M332.45 83.5493L355.078 60.9219M39.7241 85.7407L65.6127 104.55M350.387 311.45L376.275 330.26M85.7402 376.276L104.549 350.387M311.45 65.6133L330.259 39.7247M22.6704 113.57L51.1826 128.098M364.817 287.902L393.329 302.43M113.569 393.329L128.097 364.817M287.902 51.1826L302.43 22.6704M10.1797 143.724L40.6135 153.613M375.385 262.387L405.819 272.276M143.724 405.82L153.613 375.386M262.387 40.614L272.275 10.1802M2.56055 175.461L34.1666 180.467M381.833 235.532L413.439 240.538M175.461 413.439L180.467 381.833M235.532 34.1667L240.538 2.56072" stroke="#333333" class="ob-instrument-tick-mark-primary-color-stroke"/>
</g>
</svg>