<svg width="416" height="416" viewBox="0 0 416 416" fill="none" xmlns="http://www.w3.org/2000/svg">
<g id="Degree=10°, Tick size=Primary">
<path id="Tickmarks" d="M208 0V32M208 384V416M0 208H32M384 208H416M171.881 3.15991L177.438 34.6738M238.562 381.326L244.119 412.84M3.16016 244.119L34.674 238.562M381.327 177.438L412.841 171.881M136.859 12.5439L147.804 42.6141M268.195 373.386L279.14 403.456M12.5435 279.14L42.6136 268.195M373.385 147.804L403.455 136.86M104 27.8667L120 55.5795M296 360.42L312 388.133M27.8662 312L55.579 296M360.42 120L388.133 104M74.2998 48.6628L94.869 73.1763M321.13 342.824L341.699 367.337M48.6621 341.7L73.1755 321.13M342.823 94.8694L367.337 74.3002M48.6621 74.3L73.1755 94.8693M342.823 321.13L367.337 341.7M74.2998 367.337L94.869 342.823M321.13 73.176L341.699 48.6626M27.8662 104L55.579 120M360.42 296L388.133 312M104 388.133L120 360.42M296 55.5796L312 27.8668M12.5435 136.86L42.6136 147.805M373.385 268.196L403.455 279.14M136.859 403.456L147.804 373.386M268.195 42.6143L279.14 12.5441M3.15967 171.881L34.6735 177.438M381.326 238.562L412.84 244.119M171.881 412.84L177.438 381.326M238.562 34.6738L244.119 3.15998" stroke="#333333" class="ob-instrument-tick-mark-primary-color-stroke"/>
</g>
</svg>