<svg width="416" height="416" viewBox="0 0 416 416" fill="none" xmlns="http://www.w3.org/2000/svg">
<g id="Degree=5°, Tick size=Primary">
<path id="Tickmarks" d="M208 0V32M208 384V416M0 208H32M384 208H416M189.872 0.791504L192.661 32.6697M223.339 383.33L226.128 415.209M0.791504 226.128L32.6697 223.339M383.33 192.661L415.208 189.872M171.881 3.15991L177.438 34.6738M238.562 381.326L244.119 412.84M3.16016 244.119L34.674 238.562M381.327 177.438L412.841 171.881M154.166 7.0874L162.448 37.997M253.552 378.003L261.834 408.913M7.0874 261.834L37.997 253.552M378.003 162.448L408.913 154.166M136.859 12.5439L147.804 42.6141M268.195 373.386L279.14 403.456M12.5435 279.14L42.6136 268.195M373.385 147.804L403.455 136.86M120.095 19.488L133.619 48.4899M282.38 367.51L295.904 396.512M19.4878 295.905L48.4896 282.381M367.51 133.619L396.512 120.095M104 27.8667L120 55.5795M296 360.42L312 388.133M27.8662 312L55.579 296M360.42 120L388.133 104M88.6958 37.6162L107.05 63.8291M308.949 352.171L327.304 378.384M37.6157 327.304L63.8286 308.949M352.17 107.051L378.383 88.6961M74.2998 48.6628L94.869 73.1763M321.13 342.824L341.699 367.337M48.6621 341.7L73.1755 321.13M342.823 94.8694L367.337 74.3002M60.9209 60.9219L83.5483 83.5493M332.45 332.451L355.078 355.078M60.9209 355.078L83.5483 332.451M332.45 83.5493L355.078 60.9219M48.6621 74.3L73.1755 94.8693M342.823 321.13L367.337 341.7M74.2998 367.337L94.869 342.823M321.13 73.176L341.699 48.6626M37.6157 88.696L63.8286 107.05M352.17 308.949L378.383 327.304M88.6958 378.384L107.05 352.171M308.949 63.8291L327.304 37.6162M27.8662 104L55.579 120M360.42 296L388.133 312M104 388.133L120 360.42M296 55.5796L312 27.8668M19.4878 120.095L48.4896 133.619M367.51 282.381L396.512 295.905M120.095 396.512L133.619 367.51M282.38 48.4897L295.904 19.4879M12.5435 136.86L42.6136 147.805M373.385 268.196L403.455 279.14M136.859 403.456L147.804 373.386M268.195 42.6143L279.14 12.5441M7.0874 154.166L37.997 162.448M378.003 253.552L408.913 261.834M154.166 408.913L162.448 378.003M253.552 37.9971L261.834 7.08744M3.15967 171.881L34.6735 177.438M381.326 238.562L412.84 244.119M171.881 412.84L177.438 381.326M238.562 34.6738L244.119 3.15998M0.791504 189.872L32.6697 192.661M383.33 223.339L415.208 226.128M189.872 415.208L192.661 383.33M223.339 32.6697L226.128 0.791447" stroke="#333333" class="ob-instrument-tick-mark-primary-color-stroke"/>
</g>
</svg>