<svg width="416" height="416" viewBox="0 0 416 416" fill="none" xmlns="http://www.w3.org/2000/svg">
<g id="Degree=10°, Tick size=Tertiary">
<path id="Tickmarks" d="M208 24V32M176.049 26.7954L177.438 34.6739M145.068 35.0966L147.804 42.6141M116 48.6514L120 55.5796M89.7271 67.0479L94.8694 73.1762M67.0478 89.7271L73.1762 94.8694M48.6513 116L55.5795 120M35.0966 145.068L42.6141 147.804M26.7954 176.049L34.6738 177.438M24 208H32M26.7954 239.951L34.6738 238.562M35.0966 270.932L42.6141 268.195M48.6513 300L55.5795 296M67.0478 326.273L73.1762 321.131M89.7271 348.952L94.8694 342.824M116 367.349L120 360.42M145.068 380.903L147.804 373.386M176.049 389.205L177.438 381.326M208 392V384M239.951 389.205L238.562 381.326M270.932 380.903L268.196 373.386M300 367.349L296 360.42M326.273 348.952L321.131 342.824M348.952 326.273L342.824 321.131M367.349 300L360.421 296M380.903 270.932L373.386 268.195M389.205 239.951L381.326 238.562M392 208H384M389.205 176.049L381.326 177.438M380.903 145.068L373.386 147.804M367.349 116L360.421 120M348.952 89.7271L342.824 94.8694M326.273 67.0479L321.131 73.1762M300 48.6514L296 55.5796M270.932 35.0966L268.196 42.6141M239.951 26.7954L238.562 34.6739" stroke="#999999" stroke-linejoin="round" class="ob-instrument-tick-mark-secondary-color-stroke"/>
</g>
</svg>