<svg width="416" height="416" viewBox="0 0 416 416" fill="none" xmlns="http://www.w3.org/2000/svg">
<g id="Degree=9°, Tick size=Tertiary">
<path id="Tickmarks" d="M208 24V32M179.216 26.2654L180.468 34.1669M151.141 33.0056L153.613 40.6141M124.466 44.0548L128.098 51.1829M99.8475 59.1409L104.55 65.613M77.8923 77.8923L83.5492 83.5492M59.1409 99.8475L65.613 104.55M44.0548 124.466L51.1829 128.098M33.0056 151.141L40.6141 153.613M26.2654 179.216L34.1669 180.468M24 208H32M26.2654 236.784L34.1669 235.532M33.0056 264.859L40.6141 262.387M44.0548 291.534L51.1829 287.902M59.1409 316.152L65.613 311.45M77.8923 338.108L83.5492 332.451M99.8475 356.859L104.55 350.387M124.466 371.945L128.098 364.817M151.141 382.994L153.613 375.386M179.216 389.735L180.468 381.833M208 392V384M236.784 389.735L235.532 381.833M264.859 382.994L262.387 375.386M291.534 371.945L287.902 364.817M316.152 356.859L311.45 350.387M338.108 338.108L332.451 332.451M356.859 316.152L350.387 311.45M371.945 291.534L364.817 287.902M382.994 264.859L375.386 262.387M389.735 236.784L381.833 235.532M392 208H384M389.735 179.216L381.833 180.468M382.994 151.141L375.386 153.613M371.945 124.466L364.817 128.098M356.859 99.8475L350.387 104.55M338.108 77.8923L332.451 83.5492M316.152 59.1409L311.45 65.613M291.534 44.0548L287.902 51.1829M264.859 33.0056L262.387 40.6141M236.784 26.2654L235.532 34.1669" stroke="#999999" stroke-linejoin="round" class="ob-instrument-tick-mark-secondary-color-stroke"/>
</g>
</svg>