<svg width="416" height="416" viewBox="0 0 416 416" fill="none" xmlns="http://www.w3.org/2000/svg">
<g id="Degree=5°, Tick size=Tertiary">
<path id="Tickmarks" d="M208 24V32M191.963 24.7002L192.661 32.6698M176.049 26.7954L177.438 34.6739M160.377 30.2697L162.448 37.9971M145.068 35.0966L147.804 42.6141M130.238 41.2394L133.619 48.4898M116 48.6514L120 55.5796M102.462 57.276L107.051 63.8292M89.7271 67.0479L94.8694 73.1762M77.8923 77.8923L83.5492 83.5492M67.0479 89.7271L73.1762 94.8694M57.276 102.462L63.8292 107.051M48.6513 116L55.5795 120M41.2394 130.238L48.4898 133.619M35.0966 145.068L42.6141 147.804M30.2697 160.377L37.9971 162.448M26.7954 176.049L34.6739 177.438M24.7002 191.963L32.6698 192.661M24 208H32M24.7002 224.037L32.6698 223.339M26.7954 239.951L34.6739 238.562M30.2697 255.623L37.9971 253.552M35.0966 270.932L42.6141 268.195M41.2394 285.762L48.4898 282.381M48.6513 300L55.5795 296M57.276 313.538L63.8292 308.949M67.0479 326.273L73.1762 321.131M77.8923 338.108L83.5492 332.451M89.7271 348.952L94.8694 342.824M102.462 358.724L107.051 352.171M116 367.349L120 360.42M130.238 374.761L133.619 367.51M145.068 380.903L147.804 373.386M160.377 385.73L162.448 378.003M176.049 389.205L177.438 381.326M191.963 391.3L192.661 383.33M208 392V384M224.037 391.3L223.339 383.33M239.951 389.205L238.562 381.326M255.623 385.73L253.552 378.003M270.932 380.903L268.196 373.386M285.762 374.761L282.381 367.51M300 367.349L296 360.42M313.538 358.724L308.949 352.171M326.273 348.952L321.131 342.824M338.108 338.108L332.451 332.451M348.952 326.273L342.824 321.131M358.724 313.538L352.171 308.949M367.349 300L360.421 296M374.761 285.762L367.51 282.381M380.903 270.932L373.386 268.195M385.73 255.623L378.003 253.552M389.205 239.951L381.326 238.562M391.3 224.037L383.33 223.339M392 208H384M391.3 191.963L383.33 192.661M389.205 176.049L381.326 177.438M385.73 160.377L378.003 162.448M380.903 145.068L373.386 147.804M374.761 130.238L367.51 133.619M367.349 116L360.421 120M358.724 102.462L352.171 107.051M348.952 89.7271L342.824 94.8694M338.108 77.8923L332.451 83.5492M326.273 67.0479L321.131 73.1762M313.538 57.276L308.949 63.8292M300 48.6514L296 55.5796M285.762 41.2394L282.381 48.4898M270.932 35.0966L268.196 42.6141M255.623 30.2697L253.552 37.9971M239.951 26.7954L238.562 34.6739M224.037 24.7002L223.339 32.6698" stroke="#999999" stroke-linejoin="round" class="ob-instrument-tick-mark-secondary-color-stroke"/>
</g>
</svg>