<svg width="256" height="256" viewBox="0 0 256 256" fill="none" xmlns="http://www.w3.org/2000/svg">
<g id="Size=Medium, Type=Positive / Negative, Condensed=False">
<g id="Group 7">
<path id="Negative  (Stroke)" fill-rule="evenodd" clip-rule="evenodd" d="M31.9165 167.799C26.69 155.181 24 141.657 24 128H40C40 139.556 42.2762 150.999 46.6986 161.676C51.121 172.353 57.603 182.054 65.7746 190.225C73.9462 198.397 83.6472 204.879 94.3239 209.301C105.001 213.724 116.444 216 128 216V232C114.343 232 100.819 229.31 88.2009 224.083C75.5831 218.857 64.1182 211.196 54.4609 201.539C44.8036 191.882 37.143 180.417 31.9165 167.799Z" class="ob-instrument-track-color-fill"/>
<path id="Positive (Stroke)" fill-rule="evenodd" clip-rule="evenodd" d="M88.2009 31.9165C107.204 24.045 128.115 21.9855 148.289 25.9983C168.463 30.0112 186.994 39.9162 201.539 54.4609C216.084 69.0056 225.989 87.5366 230.002 107.711C234.015 127.885 231.955 148.796 224.083 167.799C216.212 186.803 202.882 203.045 185.779 214.473C168.677 225.9 148.569 232 128 232L128 216C145.405 216 162.419 210.839 176.89 201.169C191.362 191.5 202.641 177.756 209.301 161.676C215.962 145.596 217.705 127.902 214.309 110.832C210.914 93.7617 202.532 78.0816 190.225 65.7746C177.918 53.4676 162.238 45.0864 145.168 41.6909C128.098 38.2954 110.404 40.0381 94.3239 46.6986C78.244 53.3591 64.5002 64.6383 54.8307 79.1098C45.1611 93.5813 40 110.595 40 128H24C24 107.431 30.0995 87.3234 41.5272 70.2207C52.9548 53.118 69.1974 39.788 88.2009 31.9165Z" class="ob-instrument-frame-color-fill"/>
<circle id="inner-border" cx="128" cy="128" r="88.5" class="ob-instrument-tick-mark-tertiary-color-stroke"/>
<circle id="outer-border" cx="128" cy="128" r="104.5" class="ob-instrument-tick-mark-tertiary-color-stroke"/>
</g>
</g>
</svg>