<svg width="64" height="512" viewBox="0 0 64 512" fill="none" xmlns="http://www.w3.org/2000/svg">
<g id="Size=Large, Type=Circular">
<g id="COG">
<mask id="DNJKMTMXKIpath-1-outside-1" maskUnits="userSpaceOnUse" x="12" y="77" width="40" height="51" fill="black">
<rect fill="white" x="12" y="77" width="40" height="51"/>
<path fill-rule="evenodd" clip-rule="evenodd" d="M32.0001 116.143L44.7378 120.97L32.0001 90.4L19.2624 120.97L32.0001 116.143ZM32.0001 80L50.2151 123.716C50.8899 125.336 49.3009 126.977 47.6602 126.355L32.0001 120.421L16.34 126.355C14.6993 126.977 13.1103 125.336 13.7851 123.716L32.0001 80Z"/>
</mask>
<path fill-rule="evenodd" clip-rule="evenodd" d="M32.0001 116.143L44.7378 120.97L32.0001 90.4L19.2624 120.97L32.0001 116.143ZM32.0001 80L50.2151 123.716C50.8899 125.336 49.3009 126.977 47.6602 126.355L32.0001 120.421L16.34 126.355C14.6993 126.977 13.1103 125.336 13.7851 123.716L32.0001 80Z" fill="#0080FF" class="ob-instrument-dynamic-color-fill"/>
<path d="M32.0001 116.143L32.3544 115.208L32.0001 115.074L31.6457 115.208L32.0001 116.143ZM44.7378 120.97L44.3834 121.905L46.5533 122.728L45.6608 120.586L44.7378 120.97ZM32.0001 90.4L32.9231 90.0154L32.0001 87.8L31.077 90.0154L32.0001 90.4ZM19.2624 120.97L18.3394 120.586L17.4469 122.728L19.6168 121.905L19.2624 120.97ZM32.0001 80L32.9231 79.6154L32.0001 77.4L31.077 79.6154L32.0001 80ZM50.2151 123.716L51.1382 123.331L51.1382 123.331L50.2151 123.716ZM47.6602 126.355L48.0146 125.42L48.0146 125.42L47.6602 126.355ZM32.0001 120.421L32.3544 119.486L32.0001 119.352L31.6457 119.486L32.0001 120.421ZM16.34 126.355L16.6943 127.291L16.6943 127.291L16.34 126.355ZM13.7851 123.716L12.862 123.331L12.862 123.331L13.7851 123.716ZM31.6457 117.079L44.3834 121.905L45.0921 120.035L32.3544 115.208L31.6457 117.079ZM45.6608 120.586L32.9231 90.0154L31.077 90.7846L43.8147 121.355L45.6608 120.586ZM31.077 90.0154L18.3394 120.586L20.1855 121.355L32.9231 90.7846L31.077 90.0154ZM19.6168 121.905L32.3544 117.079L31.6457 115.208L18.9081 120.035L19.6168 121.905ZM31.077 80.3846L49.292 124.101L51.1382 123.331L32.9231 79.6154L31.077 80.3846ZM49.292 124.101C49.6294 124.91 48.8349 125.731 48.0146 125.42L47.3059 127.291C49.7669 128.223 52.1504 125.761 51.1382 123.331L49.292 124.101ZM48.0146 125.42L32.3544 119.486L31.6457 121.356L47.3059 127.291L48.0146 125.42ZM31.6457 119.486L15.9856 125.42L16.6943 127.291L32.3544 121.356L31.6457 119.486ZM15.9856 125.42C15.1653 125.731 14.3708 124.91 14.7082 124.101L12.862 123.331C11.8498 125.761 14.2333 128.223 16.6943 127.291L15.9856 125.42ZM14.7082 124.101L32.9231 80.3846L31.077 79.6154L12.862 123.331L14.7082 124.101Z" fill="#F7F7F7" mask="url(#DNJKMTMXKIpath-1-outside-1)" class="ob-container-background-color-fill"/>
</g>
</g>
</svg>