<svg width="48" height="65" viewBox="0 0 48 65" fill="none" xmlns="http://www.w3.org/2000/svg">
<g id="Size=Large, Type=Flat">
<g id="Union">
<mask id="PYLFPJYNCZpath-1-outside-1" maskUnits="userSpaceOnUse" x="5" y="13" width="40" height="52" fill="black">
<rect fill="white" x="5" y="13" width="40" height="52"/>
<path d="M24.626 16.5098L15.5185 38.3677L6.41106 60.2257C5.73623 61.8453 7.32522 63.4869 8.96593 62.8652L24.626 56.9308L40.2862 62.8652C41.9269 63.4869 43.5159 61.8453 42.841 60.2257L24.626 16.5098Z"/>
</mask>
<path d="M24.626 16.5098L15.5185 38.3677L6.41106 60.2257C5.73623 61.8453 7.32522 63.4869 8.96593 62.8652L24.626 56.9308L40.2862 62.8652C41.9269 63.4869 43.5159 61.8453 42.841 60.2257L24.626 16.5098Z" fill="#0080FF" class="ob-instrument-dynamic-color-fill"/>
<path d="M24.626 16.5098L25.5491 16.1252L24.626 13.9098L23.7029 16.1252L24.626 16.5098ZM15.5185 38.3677L16.4416 38.7524L16.4416 38.7524L15.5185 38.3677ZM6.41106 60.2257L5.48798 59.8411L5.48798 59.8411L6.41106 60.2257ZM8.96593 62.8652L9.32029 63.8003L9.32029 63.8003L8.96593 62.8652ZM24.626 56.9308L24.9804 55.9957L24.626 55.8614L24.2716 55.9957L24.626 56.9308ZM40.2862 62.8652L40.6405 61.9301L40.6405 61.9301L40.2862 62.8652ZM42.841 60.2257L43.7641 59.8411L43.7641 59.8411L42.841 60.2257ZM23.7029 16.1252L14.5955 37.9831L16.4416 38.7524L25.5491 16.8944L23.7029 16.1252ZM14.5955 37.9831L5.48798 59.8411L7.33414 60.6103L16.4416 38.7524L14.5955 37.9831ZM5.48798 59.8411C4.47573 62.2705 6.85922 64.7329 9.32029 63.8003L8.61157 61.9301C7.79121 62.2409 6.99672 61.4201 7.33414 60.6103L5.48798 59.8411ZM9.32029 63.8003L24.9804 57.8659L24.2716 55.9957L8.61157 61.9301L9.32029 63.8003ZM24.2716 57.8659L39.9318 63.8003L40.6405 61.9301L24.9804 55.9957L24.2716 57.8659ZM39.9318 63.8003C42.3929 64.7329 44.7764 62.2705 43.7641 59.8411L41.9179 60.6103C42.2554 61.4201 41.4609 62.2409 40.6405 61.9301L39.9318 63.8003ZM43.7641 59.8411L25.5491 16.1252L23.7029 16.8944L41.9179 60.6103L43.7641 59.8411Z" fill="#F7F7F7" mask="url(#PYLFPJYNCZpath-1-outside-1)" class="ob-container-background-color-fill"/>
</g>
</g>
</svg>