<svg width="32" height="256" viewBox="0 0 32 256" fill="none" xmlns="http://www.w3.org/2000/svg">
<g id="Size=Medium, Type=Circular">
<g id="HDG">
<mask id="AUHMCUVRGApath-1-outside-1" maskUnits="userSpaceOnUse" x="5" y="38" width="22" height="179" fill="black">
<rect fill="white" x="5" y="38" width="22" height="179"/>
<path fill-rule="evenodd" clip-rule="evenodd" d="M11.4463 51.929L16 41L25.1075 62.858C25.4449 63.6678 24.6504 64.4886 23.8301 64.1777L17 61.5895V124.126C18.7252 124.57 20 126.136 20 128C20 130.04 18.4731 131.723 16.5 131.969L16.5 216H15.5L15.5 131.969C13.5268 131.723 12 130.04 12 128C12 126.136 13.2748 124.57 15 124.126V61.5895L8.16997 64.1777C7.34961 64.4886 6.55511 63.6678 6.89253 62.858L11.4463 51.929Z"/>
</mask>
<path fill-rule="evenodd" clip-rule="evenodd" d="M11.4463 51.929L16 41L25.1075 62.858C25.4449 63.6678 24.6504 64.4886 23.8301 64.1777L17 61.5895V124.126C18.7252 124.57 20 126.136 20 128C20 130.04 18.4731 131.723 16.5 131.969L16.5 216H15.5L15.5 131.969C13.5268 131.723 12 130.04 12 128C12 126.136 13.2748 124.57 15 124.126V61.5895L8.16997 64.1777C7.34961 64.4886 6.55511 63.6678 6.89253 62.858L11.4463 51.929Z" fill="#0080FF" class="ob-instrument-dynamic-color-fill"/>
<path d="M16 41L16.9231 40.6154L16 38.4L15.0769 40.6154L16 41ZM11.4463 51.929L12.3693 52.3136L12.3693 52.3136L11.4463 51.929ZM25.1075 62.858L26.0306 62.4734L26.0306 62.4734L25.1075 62.858ZM23.8301 64.1777L24.1844 63.2426L24.1844 63.2426L23.8301 64.1777ZM17 61.5895L17.3544 60.6544L16 60.1411V61.5895H17ZM17 124.126H16V124.901L16.7507 125.094L17 124.126ZM16.5 131.969L16.3763 130.977L15.5 131.086L15.5 131.969L16.5 131.969ZM16.5 216V217H17.5L17.5 216L16.5 216ZM15.5 216L14.5 216L14.5 217H15.5V216ZM15.5 131.969L16.5 131.969L16.5 131.086L15.6237 130.977L15.5 131.969ZM15 124.126L15.2493 125.094L16 124.901V124.126H15ZM15 61.5895H16V60.1411L14.6456 60.6544L15 61.5895ZM8.16997 64.1777L8.52432 65.1128L8.52432 65.1128L8.16997 64.1777ZM6.89253 62.858L5.96945 62.4734L5.96945 62.4734L6.89253 62.858ZM15.0769 40.6154L10.5232 51.5444L12.3693 52.3136L16.9231 41.3846L15.0769 40.6154ZM26.0306 62.4734L16.9231 40.6154L15.0769 41.3846L24.1844 63.2426L26.0306 62.4734ZM23.4757 65.1128C25.1164 65.7346 26.7054 64.093 26.0306 62.4734L24.1844 63.2426L24.1844 63.2426L23.4757 65.1128ZM16.6456 62.5246L23.4757 65.1128L24.1844 63.2426L17.3544 60.6544L16.6456 62.5246ZM18 124.126V61.5895H16V124.126H18ZM21 128C21 125.669 19.4056 123.713 17.2493 123.158L16.7507 125.094C18.0449 125.428 19 126.604 19 128H21ZM16.6237 132.961C19.0912 132.654 21 130.551 21 128H19C19 129.529 17.8551 130.792 16.3763 130.977L16.6237 132.961ZM17.5 216L17.5 131.969L15.5 131.969L15.5 216L17.5 216ZM15.5 217H16.5V215H15.5V217ZM14.5 131.969L14.5 216L16.5 216L16.5 131.969L14.5 131.969ZM11 128C11 130.551 12.9088 132.654 15.3763 132.961L15.6237 130.977C14.1449 130.792 13 129.529 13 128H11ZM14.7507 123.158C12.5944 123.713 11 125.669 11 128H13C13 126.604 13.9551 125.428 15.2493 125.094L14.7507 123.158ZM14 61.5895V124.126H16V61.5895H14ZM8.52432 65.1128L15.3544 62.5246L14.6456 60.6544L7.81561 63.2426L8.52432 65.1128ZM5.96945 62.4734C5.29462 64.093 6.88361 65.7346 8.52432 65.1128L7.81561 63.2426L7.81561 63.2426L5.96945 62.4734ZM10.5232 51.5444L5.96945 62.4734L7.81561 63.2426L12.3693 52.3136L10.5232 51.5444Z" fill="#F7F7F7" mask="url(#AUHMCUVRGApath-1-outside-1)" class="ob-container-background-color-fill"/>
</g>
</g>
</svg>