<svg width="512" height="40" viewBox="0 0 512 40" fill="none" xmlns="http://www.w3.org/2000/svg">
<g id="Bar meter - Horizontal">
<g id="Component">
<g id="Tickmarks">
<g id="Ruler">
<g id="Bar frame">
<path d="M48 24L464 24V40L48 40V24Z" class="ob-instrument-frame-color-fill"/>
<path d="M48 24V23H47V24H48ZM464 24H465V23H464V24ZM464 40V41H465V40H464ZM48 40H47V41H48V40ZM48 25L464 25V23L48 23V25ZM463 24V40H465V24H463ZM464 39L48 39V41L464 41V39ZM49 40V24H47V40H49Z" fill-opacity="0.05" class="ob-instrument-frame-color-fill"/>
</g>
<g id="Secondary tickmarks">
<path id="Tickmarks_2" d="M256 32V40M266.375 32V40M276.75 32V40M287.125 32V40M297.5 32V40M307.875 32V40M318.25 32V40M328.625 32V40M339 32V40M349.375 32V40M359.75 32V40M370.125 32V40M380.5 32V40M390.875 32V40M401.25 32V40M411.625 32V40M432.375 32V40M453.125 32V40M422 32V40M442.75 32V40M463.5 32V40M235.25 32V40M245.625 32V40M214.5 32V40M224.875 32V40M193.75 32V40M204.125 32V40M173 32V40M183.375 32V40M152.25 32V40M162.625 32V40M131.5 32V40M110.75 32V40M90 32V40M69.25 32V40M48.5 32V40M58.875 32V40M79.625 32V40M100.375 32V40M121.125 32V40M141.875 32V40" class="ob-instrument-tick-mark-secondary-color-stroke"/>
</g>
<g id="Primary tickmarks">
<path id="Tickmarks_3" d="M256 24V40M307.875 24V40M359.75 24V40M411.625 24V40M463.5 24V40M204.125 24V40M152.25 24V40M100.375 24V40M48.5 24V40" class="ob-instrument-tick-mark-secondary-color-stroke"/>
</g>
</g>
</g>
</g>
</g>
</svg>