<svg width="256" height="24" viewBox="0 0 256 24" fill="none" xmlns="http://www.w3.org/2000/svg">
<g id="Bar meter - Horizontal">
<g id="Component">
<g id="Bar labels">
<path id="0" d="M130.994 6.7168C130.994 8.21289 130.748 9.32031 130.256 10.0391C129.768 10.7578 129.014 11.1172 127.994 11.1172C127.006 11.1172 126.26 10.7461 125.756 10.0039C125.256 9.26172 125.006 8.16602 125.006 6.7168C125.006 5.20508 125.25 4.0918 125.738 3.37695C126.227 2.6582 126.979 2.29883 127.994 2.29883C128.982 2.29883 129.729 2.67383 130.232 3.42383C130.74 4.17383 130.994 5.27148 130.994 6.7168ZM126.805 6.7168C126.805 7.76758 126.895 8.52148 127.074 8.97852C127.258 9.43164 127.564 9.6582 127.994 9.6582C128.416 9.6582 128.721 9.42773 128.908 8.9668C129.096 8.50586 129.189 7.75586 129.189 6.7168C129.189 5.66602 129.094 4.91211 128.902 4.45508C128.715 3.99414 128.412 3.76367 127.994 3.76367C127.568 3.76367 127.264 3.99414 127.08 4.45508C126.896 4.91211 126.805 5.66602 126.805 6.7168Z" class="ob-element-active-color-fill"/>
<path id="-100" d="M23.8066 9.22461H22.7754V11H21.0059V9.22461H17.3496V7.96484L21.1055 2.43359H22.7754V7.81836H23.8066V9.22461ZM21.0059 7.81836V6.36523C21.0059 6.12305 21.0156 5.77148 21.0352 5.31055C21.0547 4.84961 21.0703 4.58203 21.082 4.50781H21.0352C20.8906 4.82812 20.7168 5.14062 20.5137 5.44531L18.9434 7.81836H21.0059ZM30.4219 6.7168C30.4219 8.21289 30.1758 9.32031 29.6836 10.0391C29.1953 10.7578 28.4414 11.1172 27.4219 11.1172C26.4336 11.1172 25.6875 10.7461 25.1836 10.0039C24.6836 9.26172 24.4336 8.16602 24.4336 6.7168C24.4336 5.20508 24.6777 4.0918 25.166 3.37695C25.6543 2.6582 26.4062 2.29883 27.4219 2.29883C28.4102 2.29883 29.1562 2.67383 29.6602 3.42383C30.168 4.17383 30.4219 5.27148 30.4219 6.7168ZM26.2324 6.7168C26.2324 7.76758 26.3223 8.52148 26.502 8.97852C26.6855 9.43164 26.9922 9.6582 27.4219 9.6582C27.8438 9.6582 28.1484 9.42773 28.3359 8.9668C28.5234 8.50586 28.6172 7.75586 28.6172 6.7168C28.6172 5.66602 28.5215 4.91211 28.3301 4.45508C28.1426 3.99414 27.8398 3.76367 27.4219 3.76367C26.9961 3.76367 26.6914 3.99414 26.5078 4.45508C26.3242 4.91211 26.2324 5.66602 26.2324 6.7168Z" class="ob-instrument-port-color-fill"/>
<path id="100" d="M231.807 9.22461H230.775V11H229.006V9.22461H225.35V7.96484L229.105 2.43359H230.775V7.81836H231.807V9.22461ZM229.006 7.81836V6.36523C229.006 6.12305 229.016 5.77148 229.035 5.31055C229.055 4.84961 229.07 4.58203 229.082 4.50781H229.035C228.891 4.82812 228.717 5.14062 228.514 5.44531L226.943 7.81836H229.006ZM238.422 6.7168C238.422 8.21289 238.176 9.32031 237.684 10.0391C237.195 10.7578 236.441 11.1172 235.422 11.1172C234.434 11.1172 233.688 10.7461 233.184 10.0039C232.684 9.26172 232.434 8.16602 232.434 6.7168C232.434 5.20508 232.678 4.0918 233.166 3.37695C233.654 2.6582 234.406 2.29883 235.422 2.29883C236.41 2.29883 237.156 2.67383 237.66 3.42383C238.168 4.17383 238.422 5.27148 238.422 6.7168ZM234.232 6.7168C234.232 7.76758 234.322 8.52148 234.502 8.97852C234.686 9.43164 234.992 9.6582 235.422 9.6582C235.844 9.6582 236.148 9.42773 236.336 8.9668C236.523 8.50586 236.617 7.75586 236.617 6.7168C236.617 5.66602 236.521 4.91211 236.33 4.45508C236.143 3.99414 235.84 3.76367 235.422 3.76367C234.996 3.76367 234.691 3.99414 234.508 4.45508C234.324 4.91211 234.232 5.66602 234.232 6.7168Z" class="ob-instrument-starboard-color-fill"/>
<path id="50" d="M179.85 11H174.219V10.1621L176.475 7.89453C177.162 7.19922 177.615 6.70312 177.834 6.40625C178.053 6.10938 178.217 5.82031 178.326 5.53906C178.436 5.25781 178.49 4.95508 178.49 4.63086C178.49 4.17383 178.352 3.8125 178.074 3.54688C177.797 3.27734 177.412 3.14258 176.92 3.14258C176.564 3.14258 176.227 3.20117 175.906 3.31836C175.59 3.43555 175.236 3.64844 174.846 3.95703L174.33 3.29492C175.119 2.63867 175.979 2.31055 176.908 2.31055C177.713 2.31055 178.344 2.51758 178.801 2.93164C179.258 3.3418 179.486 3.89453 179.486 4.58984C179.486 5.13281 179.334 5.66992 179.029 6.20117C178.725 6.73242 178.154 7.4043 177.318 8.2168L175.443 10.0508V10.0977H179.85V11ZM186.764 6.70508C186.764 8.18555 186.529 9.29102 186.061 10.0215C185.596 10.752 184.883 11.1172 183.922 11.1172C183 11.1172 182.299 10.7441 181.818 9.99805C181.338 9.24805 181.098 8.15039 181.098 6.70508C181.098 5.21289 181.33 4.10547 181.795 3.38281C182.26 2.66016 182.969 2.29883 183.922 2.29883C184.852 2.29883 185.557 2.67578 186.037 3.42969C186.521 4.18359 186.764 5.27539 186.764 6.70508ZM182.082 6.70508C182.082 7.95117 182.229 8.85938 182.521 9.42969C182.814 9.99609 183.281 10.2793 183.922 10.2793C184.57 10.2793 185.039 9.99219 185.328 9.41797C185.621 8.83984 185.768 7.93555 185.768 6.70508C185.768 5.47461 185.621 4.57422 185.328 4.00391C185.039 3.42969 184.57 3.14258 183.922 3.14258C183.281 3.14258 182.814 3.42578 182.521 3.99219C182.229 4.55469 182.082 5.45898 182.082 6.70508Z" class="ob-instrument-starboard-color-fill"/>
<path id="-50" d="M76.3496 11H70.7188V10.1621L72.9746 7.89453C73.6621 7.19922 74.1152 6.70312 74.334 6.40625C74.5527 6.10938 74.7168 5.82031 74.8262 5.53906C74.9355 5.25781 74.9902 4.95508 74.9902 4.63086C74.9902 4.17383 74.8516 3.8125 74.5742 3.54688C74.2969 3.27734 73.9121 3.14258 73.4199 3.14258C73.0645 3.14258 72.7266 3.20117 72.4062 3.31836C72.0898 3.43555 71.7363 3.64844 71.3457 3.95703L70.8301 3.29492C71.6191 2.63867 72.4785 2.31055 73.4082 2.31055C74.2129 2.31055 74.8438 2.51758 75.3008 2.93164C75.7578 3.3418 75.9863 3.89453 75.9863 4.58984C75.9863 5.13281 75.834 5.66992 75.5293 6.20117C75.2246 6.73242 74.6543 7.4043 73.8184 8.2168L71.9434 10.0508V10.0977H76.3496V11ZM83.2637 6.70508C83.2637 8.18555 83.0293 9.29102 82.5605 10.0215C82.0957 10.752 81.3828 11.1172 80.4219 11.1172C79.5 11.1172 78.7988 10.7441 78.3184 9.99805C77.8379 9.24805 77.5977 8.15039 77.5977 6.70508C77.5977 5.21289 77.8301 4.10547 78.2949 3.38281C78.7598 2.66016 79.4688 2.29883 80.4219 2.29883C81.3516 2.29883 82.0566 2.67578 82.5371 3.42969C83.0215 4.18359 83.2637 5.27539 83.2637 6.70508ZM78.582 6.70508C78.582 7.95117 78.7285 8.85938 79.0215 9.42969C79.3145 9.99609 79.7812 10.2793 80.4219 10.2793C81.0703 10.2793 81.5391 9.99219 81.8281 9.41797C82.1211 8.83984 82.2676 7.93555 82.2676 6.70508C82.2676 5.47461 82.1211 4.57422 81.8281 4.00391C81.5391 3.42969 81.0703 3.14258 80.4219 3.14258C79.7812 3.14258 79.3145 3.42578 79.0215 3.99219C78.7285 4.55469 78.582 5.45898 78.582 6.70508Z" class="ob-instrument-port-color-fill"/>
<path id="-25" d="M100.322 11H99.373V4.89453C99.373 4.38672 99.3887 3.90625 99.4199 3.45312C99.3379 3.53516 99.2461 3.62109 99.1445 3.71094C99.043 3.80078 98.5781 4.18164 97.75 4.85352L97.2344 4.18555L99.502 2.43359H100.322V11ZM109.264 6.70508C109.264 8.18555 109.029 9.29102 108.561 10.0215C108.096 10.752 107.383 11.1172 106.422 11.1172C105.5 11.1172 104.799 10.7441 104.318 9.99805C103.838 9.24805 103.598 8.15039 103.598 6.70508C103.598 5.21289 103.83 4.10547 104.295 3.38281C104.76 2.66016 105.469 2.29883 106.422 2.29883C107.352 2.29883 108.057 2.67578 108.537 3.42969C109.021 4.18359 109.264 5.27539 109.264 6.70508ZM104.582 6.70508C104.582 7.95117 104.729 8.85938 105.021 9.42969C105.314 9.99609 105.781 10.2793 106.422 10.2793C107.07 10.2793 107.539 9.99219 107.828 9.41797C108.121 8.83984 108.268 7.93555 108.268 6.70508C108.268 5.47461 108.121 4.57422 107.828 4.00391C107.539 3.42969 107.07 3.14258 106.422 3.14258C105.781 3.14258 105.314 3.42578 105.021 3.99219C104.729 4.55469 104.582 5.45898 104.582 6.70508Z" class="ob-instrument-port-color-fill"/>
<path id="25" d="M151.822 11H150.873V4.89453C150.873 4.38672 150.889 3.90625 150.92 3.45312C150.838 3.53516 150.746 3.62109 150.645 3.71094C150.543 3.80078 150.078 4.18164 149.25 4.85352L148.734 4.18555L151.002 2.43359H151.822V11ZM160.764 6.70508C160.764 8.18555 160.529 9.29102 160.061 10.0215C159.596 10.752 158.883 11.1172 157.922 11.1172C157 11.1172 156.299 10.7441 155.818 9.99805C155.338 9.24805 155.098 8.15039 155.098 6.70508C155.098 5.21289 155.33 4.10547 155.795 3.38281C156.26 2.66016 156.969 2.29883 157.922 2.29883C158.852 2.29883 159.557 2.67578 160.037 3.42969C160.521 4.18359 160.764 5.27539 160.764 6.70508ZM156.082 6.70508C156.082 7.95117 156.229 8.85938 156.521 9.42969C156.814 9.99609 157.281 10.2793 157.922 10.2793C158.57 10.2793 159.039 9.99219 159.328 9.41797C159.621 8.83984 159.768 7.93555 159.768 6.70508C159.768 5.47461 159.621 4.57422 159.328 4.00391C159.039 3.42969 158.57 3.14258 157.922 3.14258C157.281 3.14258 156.814 3.42578 156.521 3.99219C156.229 4.55469 156.082 5.45898 156.082 6.70508Z" class="ob-instrument-starboard-color-fill"/>
<path id="75" d="M205.527 4.44922C205.527 4.99609 205.373 5.44336 205.064 5.79102C204.76 6.13867 204.326 6.37109 203.764 6.48828V6.53516C204.451 6.62109 204.961 6.83984 205.293 7.19141C205.625 7.54297 205.791 8.00391 205.791 8.57422C205.791 9.39062 205.508 10.0195 204.941 10.4609C204.375 10.8984 203.57 11.1172 202.527 11.1172C202.074 11.1172 201.658 11.082 201.279 11.0117C200.904 10.9453 200.539 10.8262 200.184 10.6543V9.72852C200.555 9.91211 200.949 10.0527 201.367 10.1504C201.789 10.2441 202.188 10.291 202.562 10.291C204.043 10.291 204.783 9.71094 204.783 8.55078C204.783 7.51172 203.967 6.99219 202.334 6.99219H201.49V6.1543H202.346C203.014 6.1543 203.543 6.00781 203.934 5.71484C204.324 5.41797 204.52 5.00781 204.52 4.48438C204.52 4.06641 204.375 3.73828 204.086 3.5C203.801 3.26172 203.412 3.14258 202.92 3.14258C202.545 3.14258 202.191 3.19336 201.859 3.29492C201.527 3.39648 201.148 3.58398 200.723 3.85742L200.23 3.20117C200.582 2.92383 200.986 2.70703 201.443 2.55078C201.904 2.39062 202.389 2.31055 202.896 2.31055C203.729 2.31055 204.375 2.50195 204.836 2.88477C205.297 3.26367 205.527 3.78516 205.527 4.44922ZM212.764 6.70508C212.764 8.18555 212.529 9.29102 212.061 10.0215C211.596 10.752 210.883 11.1172 209.922 11.1172C209 11.1172 208.299 10.7441 207.818 9.99805C207.338 9.24805 207.098 8.15039 207.098 6.70508C207.098 5.21289 207.33 4.10547 207.795 3.38281C208.26 2.66016 208.969 2.29883 209.922 2.29883C210.852 2.29883 211.557 2.67578 212.037 3.42969C212.521 4.18359 212.764 5.27539 212.764 6.70508ZM208.082 6.70508C208.082 7.95117 208.229 8.85938 208.521 9.42969C208.814 9.99609 209.281 10.2793 209.922 10.2793C210.57 10.2793 211.039 9.99219 211.328 9.41797C211.621 8.83984 211.768 7.93555 211.768 6.70508C211.768 5.47461 211.621 4.57422 211.328 4.00391C211.039 3.42969 210.57 3.14258 209.922 3.14258C209.281 3.14258 208.814 3.42578 208.521 3.99219C208.229 4.55469 208.082 5.45898 208.082 6.70508Z" class="ob-instrument-starboard-color-fill"/>
<path id="-75" d="M50.0273 4.44922C50.0273 4.99609 49.873 5.44336 49.5645 5.79102C49.2598 6.13867 48.8262 6.37109 48.2637 6.48828V6.53516C48.9512 6.62109 49.4609 6.83984 49.793 7.19141C50.125 7.54297 50.291 8.00391 50.291 8.57422C50.291 9.39062 50.0078 10.0195 49.4414 10.4609C48.875 10.8984 48.0703 11.1172 47.0273 11.1172C46.5742 11.1172 46.1582 11.082 45.7793 11.0117C45.4043 10.9453 45.0391 10.8262 44.6836 10.6543V9.72852C45.0547 9.91211 45.4492 10.0527 45.8672 10.1504C46.2891 10.2441 46.6875 10.291 47.0625 10.291C48.543 10.291 49.2832 9.71094 49.2832 8.55078C49.2832 7.51172 48.4668 6.99219 46.834 6.99219H45.9902V6.1543H46.8457C47.5137 6.1543 48.043 6.00781 48.4336 5.71484C48.8242 5.41797 49.0195 5.00781 49.0195 4.48438C49.0195 4.06641 48.875 3.73828 48.5859 3.5C48.3008 3.26172 47.9121 3.14258 47.4199 3.14258C47.0449 3.14258 46.6914 3.19336 46.3594 3.29492C46.0273 3.39648 45.6484 3.58398 45.2227 3.85742L44.7305 3.20117C45.082 2.92383 45.4863 2.70703 45.9434 2.55078C46.4043 2.39062 46.8887 2.31055 47.3965 2.31055C48.2285 2.31055 48.875 2.50195 49.3359 2.88477C49.7969 3.26367 50.0273 3.78516 50.0273 4.44922ZM57.2637 6.70508C57.2637 8.18555 57.0293 9.29102 56.5605 10.0215C56.0957 10.752 55.3828 11.1172 54.4219 11.1172C53.5 11.1172 52.7988 10.7441 52.3184 9.99805C51.8379 9.24805 51.5977 8.15039 51.5977 6.70508C51.5977 5.21289 51.8301 4.10547 52.2949 3.38281C52.7598 2.66016 53.4688 2.29883 54.4219 2.29883C55.3516 2.29883 56.0566 2.67578 56.5371 3.42969C57.0215 4.18359 57.2637 5.27539 57.2637 6.70508ZM52.582 6.70508C52.582 7.95117 52.7285 8.85938 53.0215 9.42969C53.3145 9.99609 53.7812 10.2793 54.4219 10.2793C55.0703 10.2793 55.5391 9.99219 55.8281 9.41797C56.1211 8.83984 56.2676 7.93555 56.2676 6.70508C56.2676 5.47461 56.1211 4.57422 55.8281 4.00391C55.5391 3.42969 55.0703 3.14258 54.4219 3.14258C53.7812 3.14258 53.3145 3.42578 53.0215 3.99219C52.7285 4.55469 52.582 5.45898 52.582 6.70508Z" class="ob-instrument-port-color-fill"/>
</g>
<g id="Tickmarks">
<g id="Ruler">
<g id="Bar frame">
<path d="M24 16L232 16V24L24 24V16Z" class="ob-instrument-frame-color-fill"/>
<path d="M24 16V15H23V16H24ZM232 16H233V15H232V16ZM232 24V25H233V24H232ZM24 24H23V25H24V24ZM24 17L232 17V15L24 15V17ZM231 16V24L233 24V16H231ZM232 23L24 23V25L232 25V23ZM25 24V16H23V24H25Z" fill-opacity="0.05" class="ob-instrument-frame-color-fill"/>
</g>
<g id="Primary tickmarks">
<path id="Tickmarks_2" d="M128 16V24M153.875 16V24M179.75 16V24M205.625 16V24M231.5 16V24M102.125 16V24M76.25 16V24M50.375 16V24M24.5 16V24" class="ob-instrument-tick-mark-secondary-color-stroke"/>
</g>
</g>
</g>
</g>
</g>
</svg>