<svg width="512" height="40" viewBox="0 0 512 40" fill="none" xmlns="http://www.w3.org/2000/svg">
<g id="Bar meter - Horizontal">
<g id="Component">
<g id="Bar labels">
<path id="0" d="M259.992 12.2891C259.992 14.2839 259.664 15.7604 259.008 16.7188C258.357 17.6771 257.352 18.1562 255.992 18.1562C254.674 18.1562 253.68 17.6615 253.008 16.6719C252.341 15.6823 252.008 14.2214 252.008 12.2891C252.008 10.2734 252.333 8.78906 252.984 7.83594C253.635 6.8776 254.638 6.39844 255.992 6.39844C257.31 6.39844 258.305 6.89844 258.977 7.89844C259.654 8.89844 259.992 10.362 259.992 12.2891ZM254.406 12.2891C254.406 13.6901 254.526 14.6953 254.766 15.3047C255.01 15.9089 255.419 16.2109 255.992 16.2109C256.555 16.2109 256.961 15.9036 257.211 15.2891C257.461 14.6745 257.586 13.6745 257.586 12.2891C257.586 10.888 257.458 9.88281 257.203 9.27344C256.953 8.65885 256.549 8.35156 255.992 8.35156C255.424 8.35156 255.018 8.65885 254.773 9.27344C254.529 9.88281 254.406 10.888 254.406 12.2891Z" fill="#333333" class="ob-element-active-color-fill"/>
<path id="50" d="M359.633 18H352.125V16.8828L355.133 13.8594C356.049 12.9323 356.654 12.2708 356.945 11.875C357.237 11.4792 357.456 11.0938 357.602 10.7188C357.747 10.3438 357.82 9.9401 357.82 9.50781C357.82 8.89844 357.635 8.41667 357.266 8.0625C356.896 7.70312 356.383 7.52344 355.727 7.52344C355.253 7.52344 354.802 7.60156 354.375 7.75781C353.953 7.91406 353.482 8.19792 352.961 8.60938L352.273 7.72656C353.326 6.85156 354.471 6.41406 355.711 6.41406C356.784 6.41406 357.625 6.6901 358.234 7.24219C358.844 7.78906 359.148 8.52604 359.148 9.45312C359.148 10.1771 358.945 10.8932 358.539 11.6016C358.133 12.3099 357.372 13.2057 356.258 14.2891L353.758 16.7344V16.7969H359.633V18ZM368.852 12.2734C368.852 14.2474 368.539 15.7214 367.914 16.6953C367.294 17.6693 366.344 18.1562 365.062 18.1562C363.833 18.1562 362.898 17.6589 362.258 16.6641C361.617 15.6641 361.297 14.2005 361.297 12.2734C361.297 10.2839 361.607 8.80729 362.227 7.84375C362.846 6.88021 363.792 6.39844 365.062 6.39844C366.302 6.39844 367.242 6.90104 367.883 7.90625C368.529 8.91146 368.852 10.3672 368.852 12.2734ZM362.609 12.2734C362.609 13.9349 362.805 15.1458 363.195 15.9062C363.586 16.6615 364.208 17.0391 365.062 17.0391C365.927 17.0391 366.552 16.6562 366.938 15.8906C367.328 15.1198 367.523 13.9141 367.523 12.2734C367.523 10.6328 367.328 9.43229 366.938 8.67188C366.552 7.90625 365.927 7.52344 365.062 7.52344C364.208 7.52344 363.586 7.90104 363.195 8.65625C362.805 9.40625 362.609 10.612 362.609 12.2734Z" fill="#333333" class="ob-element-active-color-fill"/>
<path id="-50" d="M151.633 18H144.125V16.8828L147.133 13.8594C148.049 12.9323 148.654 12.2708 148.945 11.875C149.237 11.4792 149.456 11.0938 149.602 10.7188C149.747 10.3438 149.82 9.9401 149.82 9.50781C149.82 8.89844 149.635 8.41667 149.266 8.0625C148.896 7.70312 148.383 7.52344 147.727 7.52344C147.253 7.52344 146.802 7.60156 146.375 7.75781C145.953 7.91406 145.482 8.19792 144.961 8.60938L144.273 7.72656C145.326 6.85156 146.471 6.41406 147.711 6.41406C148.784 6.41406 149.625 6.6901 150.234 7.24219C150.844 7.78906 151.148 8.52604 151.148 9.45312C151.148 10.1771 150.945 10.8932 150.539 11.6016C150.133 12.3099 149.372 13.2057 148.258 14.2891L145.758 16.7344V16.7969H151.633V18ZM160.852 12.2734C160.852 14.2474 160.539 15.7214 159.914 16.6953C159.294 17.6693 158.344 18.1562 157.062 18.1562C155.833 18.1562 154.898 17.6589 154.258 16.6641C153.617 15.6641 153.297 14.2005 153.297 12.2734C153.297 10.2839 153.607 8.80729 154.227 7.84375C154.846 6.88021 155.792 6.39844 157.062 6.39844C158.302 6.39844 159.242 6.90104 159.883 7.90625C160.529 8.91146 160.852 10.3672 160.852 12.2734ZM154.609 12.2734C154.609 13.9349 154.805 15.1458 155.195 15.9062C155.586 16.6615 156.208 17.0391 157.062 17.0391C157.927 17.0391 158.552 16.6562 158.938 15.8906C159.328 15.1198 159.523 13.9141 159.523 12.2734C159.523 10.6328 159.328 9.43229 158.938 8.67188C158.552 7.90625 157.927 7.52344 157.062 7.52344C156.208 7.52344 155.586 7.90104 155.195 8.65625C154.805 9.40625 154.609 10.612 154.609 12.2734Z" fill="#333333" class="ob-element-active-color-fill"/>
<path id="-25" d="M200.93 18H199.664V9.85938C199.664 9.18229 199.685 8.54167 199.727 7.9375C199.617 8.04688 199.495 8.16146 199.359 8.28125C199.224 8.40104 198.604 8.90885 197.5 9.80469L196.812 8.91406L199.836 6.57812H200.93V18ZM212.852 12.2734C212.852 14.2474 212.539 15.7214 211.914 16.6953C211.294 17.6693 210.344 18.1562 209.062 18.1562C207.833 18.1562 206.898 17.6589 206.258 16.6641C205.617 15.6641 205.297 14.2005 205.297 12.2734C205.297 10.2839 205.607 8.80729 206.227 7.84375C206.846 6.88021 207.792 6.39844 209.062 6.39844C210.302 6.39844 211.242 6.90104 211.883 7.90625C212.529 8.91146 212.852 10.3672 212.852 12.2734ZM206.609 12.2734C206.609 13.9349 206.805 15.1458 207.195 15.9062C207.586 16.6615 208.208 17.0391 209.062 17.0391C209.927 17.0391 210.552 16.6562 210.938 15.8906C211.328 15.1198 211.523 13.9141 211.523 12.2734C211.523 10.6328 211.328 9.43229 210.938 8.67188C210.552 7.90625 209.927 7.52344 209.062 7.52344C208.208 7.52344 207.586 7.90104 207.195 8.65625C206.805 9.40625 206.609 10.612 206.609 12.2734Z" fill="#333333" class="ob-element-active-color-fill"/>
<path id="25" d="M304.93 18H303.664V9.85938C303.664 9.18229 303.685 8.54167 303.727 7.9375C303.617 8.04688 303.495 8.16146 303.359 8.28125C303.224 8.40104 302.604 8.90885 301.5 9.80469L300.812 8.91406L303.836 6.57812H304.93V18ZM316.852 12.2734C316.852 14.2474 316.539 15.7214 315.914 16.6953C315.294 17.6693 314.344 18.1562 313.062 18.1562C311.833 18.1562 310.898 17.6589 310.258 16.6641C309.617 15.6641 309.297 14.2005 309.297 12.2734C309.297 10.2839 309.607 8.80729 310.227 7.84375C310.846 6.88021 311.792 6.39844 313.062 6.39844C314.302 6.39844 315.242 6.90104 315.883 7.90625C316.529 8.91146 316.852 10.3672 316.852 12.2734ZM310.609 12.2734C310.609 13.9349 310.805 15.1458 311.195 15.9062C311.586 16.6615 312.208 17.0391 313.062 17.0391C313.927 17.0391 314.552 16.6562 314.938 15.8906C315.328 15.1198 315.523 13.9141 315.523 12.2734C315.523 10.6328 315.328 9.43229 314.938 8.67188C314.552 7.90625 313.927 7.52344 313.062 7.52344C312.208 7.52344 311.586 7.90104 311.195 8.65625C310.805 9.40625 310.609 10.612 310.609 12.2734Z" fill="#333333" class="ob-element-active-color-fill"/>
<path id="75" d="M411.203 9.26562C411.203 9.99479 410.997 10.5911 410.586 11.0547C410.18 11.5182 409.602 11.8281 408.852 11.9844V12.0469C409.768 12.1615 410.448 12.4531 410.891 12.9219C411.333 13.3906 411.555 14.0052 411.555 14.7656C411.555 15.8542 411.177 16.6927 410.422 17.2812C409.667 17.8646 408.594 18.1562 407.203 18.1562C406.599 18.1562 406.044 18.1094 405.539 18.0156C405.039 17.9271 404.552 17.7682 404.078 17.5391V16.3047C404.573 16.5495 405.099 16.737 405.656 16.8672C406.219 16.9922 406.75 17.0547 407.25 17.0547C409.224 17.0547 410.211 16.2812 410.211 14.7344C410.211 13.349 409.122 12.6562 406.945 12.6562H405.82V11.5391H406.961C407.852 11.5391 408.557 11.3438 409.078 10.9531C409.599 10.5573 409.859 10.0104 409.859 9.3125C409.859 8.75521 409.667 8.31771 409.281 8C408.901 7.68229 408.383 7.52344 407.727 7.52344C407.227 7.52344 406.755 7.59115 406.312 7.72656C405.87 7.86198 405.365 8.11198 404.797 8.47656L404.141 7.60156C404.609 7.23177 405.148 6.94271 405.758 6.73438C406.372 6.52083 407.018 6.41406 407.695 6.41406C408.805 6.41406 409.667 6.66927 410.281 7.17969C410.896 7.6849 411.203 8.38021 411.203 9.26562ZM420.852 12.2734C420.852 14.2474 420.539 15.7214 419.914 16.6953C419.294 17.6693 418.344 18.1562 417.062 18.1562C415.833 18.1562 414.898 17.6589 414.258 16.6641C413.617 15.6641 413.297 14.2005 413.297 12.2734C413.297 10.2839 413.607 8.80729 414.227 7.84375C414.846 6.88021 415.792 6.39844 417.062 6.39844C418.302 6.39844 419.242 6.90104 419.883 7.90625C420.529 8.91146 420.852 10.3672 420.852 12.2734ZM414.609 12.2734C414.609 13.9349 414.805 15.1458 415.195 15.9062C415.586 16.6615 416.208 17.0391 417.062 17.0391C417.927 17.0391 418.552 16.6562 418.938 15.8906C419.328 15.1198 419.523 13.9141 419.523 12.2734C419.523 10.6328 419.328 9.43229 418.938 8.67188C418.552 7.90625 417.927 7.52344 417.062 7.52344C416.208 7.52344 415.586 7.90104 415.195 8.65625C414.805 9.40625 414.609 10.612 414.609 12.2734Z" fill="#333333" class="ob-element-active-color-fill"/>
<path id="-75" d="M99.2031 9.26562C99.2031 9.99479 98.9974 10.5911 98.5859 11.0547C98.1797 11.5182 97.6016 11.8281 96.8516 11.9844V12.0469C97.7682 12.1615 98.4479 12.4531 98.8906 12.9219C99.3333 13.3906 99.5547 14.0052 99.5547 14.7656C99.5547 15.8542 99.1771 16.6927 98.4219 17.2812C97.6667 17.8646 96.5938 18.1562 95.2031 18.1562C94.599 18.1562 94.0443 18.1094 93.5391 18.0156C93.0391 17.9271 92.5521 17.7682 92.0781 17.5391V16.3047C92.5729 16.5495 93.099 16.737 93.6562 16.8672C94.2188 16.9922 94.75 17.0547 95.25 17.0547C97.224 17.0547 98.2109 16.2812 98.2109 14.7344C98.2109 13.349 97.1224 12.6562 94.9453 12.6562H93.8203V11.5391H94.9609C95.8516 11.5391 96.5573 11.3438 97.0781 10.9531C97.599 10.5573 97.8594 10.0104 97.8594 9.3125C97.8594 8.75521 97.6667 8.31771 97.2812 8C96.901 7.68229 96.3828 7.52344 95.7266 7.52344C95.2266 7.52344 94.7552 7.59115 94.3125 7.72656C93.8698 7.86198 93.3646 8.11198 92.7969 8.47656L92.1406 7.60156C92.6094 7.23177 93.1484 6.94271 93.7578 6.73438C94.3724 6.52083 95.0182 6.41406 95.6953 6.41406C96.8047 6.41406 97.6667 6.66927 98.2812 7.17969C98.8958 7.6849 99.2031 8.38021 99.2031 9.26562ZM108.852 12.2734C108.852 14.2474 108.539 15.7214 107.914 16.6953C107.294 17.6693 106.344 18.1562 105.062 18.1562C103.833 18.1562 102.898 17.6589 102.258 16.6641C101.617 15.6641 101.297 14.2005 101.297 12.2734C101.297 10.2839 101.607 8.80729 102.227 7.84375C102.846 6.88021 103.792 6.39844 105.062 6.39844C106.302 6.39844 107.242 6.90104 107.883 7.90625C108.529 8.91146 108.852 10.3672 108.852 12.2734ZM102.609 12.2734C102.609 13.9349 102.805 15.1458 103.195 15.9062C103.586 16.6615 104.208 17.0391 105.062 17.0391C105.927 17.0391 106.552 16.6562 106.938 15.8906C107.328 15.1198 107.523 13.9141 107.523 12.2734C107.523 10.6328 107.328 9.43229 106.938 8.67188C106.552 7.90625 105.927 7.52344 105.062 7.52344C104.208 7.52344 103.586 7.90104 103.195 8.65625C102.805 9.40625 102.609 10.612 102.609 12.2734Z" fill="#333333" class="ob-element-active-color-fill"/>
<path id="-100" d="M48.2422 15.6328H46.8672V18H44.5078V15.6328H39.6328V13.9531L44.6406 6.57812H46.8672V13.7578H48.2422V15.6328ZM44.5078 13.7578V11.8203C44.5078 11.4974 44.5208 11.0286 44.5469 10.4141C44.5729 9.79948 44.5938 9.44271 44.6094 9.34375H44.5469C44.3542 9.77083 44.1224 10.1875 43.8516 10.5938L41.7578 13.7578H44.5078ZM57.0625 12.2891C57.0625 14.2839 56.7344 15.7604 56.0781 16.7188C55.4271 17.6771 54.4219 18.1562 53.0625 18.1562C51.7448 18.1562 50.75 17.6615 50.0781 16.6719C49.4115 15.6823 49.0781 14.2214 49.0781 12.2891C49.0781 10.2734 49.4036 8.78906 50.0547 7.83594C50.7057 6.8776 51.7083 6.39844 53.0625 6.39844C54.3802 6.39844 55.375 6.89844 56.0469 7.89844C56.724 8.89844 57.0625 10.362 57.0625 12.2891ZM51.4766 12.2891C51.4766 13.6901 51.5964 14.6953 51.8359 15.3047C52.0807 15.9089 52.4896 16.2109 53.0625 16.2109C53.625 16.2109 54.0312 15.9036 54.2812 15.2891C54.5312 14.6745 54.6562 13.6745 54.6562 12.2891C54.6562 10.888 54.5286 9.88281 54.2734 9.27344C54.0234 8.65885 53.6198 8.35156 53.0625 8.35156C52.4948 8.35156 52.0885 8.65885 51.8438 9.27344C51.599 9.88281 51.4766 10.888 51.4766 12.2891Z" fill="#333333" class="ob-element-active-color-fill"/>
<path id="100" d="M464.242 15.6328H462.867V18H460.508V15.6328H455.633V13.9531L460.641 6.57812H462.867V13.7578H464.242V15.6328ZM460.508 13.7578V11.8203C460.508 11.4974 460.521 11.0286 460.547 10.4141C460.573 9.79948 460.594 9.44271 460.609 9.34375H460.547C460.354 9.77083 460.122 10.1875 459.852 10.5938L457.758 13.7578H460.508ZM473.062 12.2891C473.062 14.2839 472.734 15.7604 472.078 16.7188C471.427 17.6771 470.422 18.1562 469.062 18.1562C467.745 18.1562 466.75 17.6615 466.078 16.6719C465.411 15.6823 465.078 14.2214 465.078 12.2891C465.078 10.2734 465.404 8.78906 466.055 7.83594C466.706 6.8776 467.708 6.39844 469.062 6.39844C470.38 6.39844 471.375 6.89844 472.047 7.89844C472.724 8.89844 473.062 10.362 473.062 12.2891ZM467.477 12.2891C467.477 13.6901 467.596 14.6953 467.836 15.3047C468.081 15.9089 468.49 16.2109 469.062 16.2109C469.625 16.2109 470.031 15.9036 470.281 15.2891C470.531 14.6745 470.656 13.6745 470.656 12.2891C470.656 10.888 470.529 9.88281 470.273 9.27344C470.023 8.65885 469.62 8.35156 469.062 8.35156C468.495 8.35156 468.089 8.65885 467.844 9.27344C467.599 9.88281 467.477 10.888 467.477 12.2891Z" fill="#333333" class="ob-element-active-color-fill"/>
</g>
<g id="Tickmarks">
<g id="Ruler">
<g id="Bar frame">
<path d="M48 24L464 24V40L48 40V24Z" fill="white" class="ob-instrument-frame-color-fill"/>
<path d="M48 24V23H47V24H48ZM464 24H465V23H464V24ZM464 40V41H465V40H464ZM48 40H47V41H48V40ZM48 25L464 25V23L48 23V25ZM463 24V40H465V24H463ZM464 39L48 39V41L464 41V39ZM49 40V24H47V40H49Z" fill="black" fill-opacity="0.05" class="ob-instrument-frame-color-fill"/>
</g>
<g id="Secondary tickmarks">
<path id="Tickmarks_2" d="M256 32V40M266.375 32V40M276.75 32V40M287.125 32V40M297.5 32V40M307.875 32V40M318.25 32V40M328.625 32V40M339 32V40M349.375 32V40M359.75 32V40M370.125 32V40M380.5 32V40M390.875 32V40M401.25 32V40M411.625 32V40M432.375 32V40M453.125 32V40M422 32V40M442.75 32V40M463.5 32V40M235.25 32V40M245.625 32V40M214.5 32V40M224.875 32V40M193.75 32V40M204.125 32V40M173 32V40M183.375 32V40M152.25 32V40M162.625 32V40M131.5 32V40M110.75 32V40M90 32V40M69.25 32V40M48.5 32V40M58.875 32V40M79.625 32V40M100.375 32V40M121.125 32V40M141.875 32V40" stroke="#E5E5E5" class="ob-instrument-tick-mark-tertiary-color-stroke"/>
</g>
<g id="Primary tickmarks">
<path id="Tickmarks_3" d="M256 24V40M307.875 24V40M359.75 24V40M411.625 24V40M463.5 24V40M204.125 24V40M152.25 24V40M100.375 24V40M48.5 24V40" stroke="#999999" class="ob-instrument-tick-mark-secondary-color-stroke"/>
</g>
</g>
</g>
</g>
</g>
</svg>