<svg xmlns="http://www.w3.org/2000/svg" width="639" height="639" fill="none" viewBox="0 0 639 639">
  <path fill="#fff" stroke="#E5E5E5" d="M276 484.5c115.151 0 208.5-93.349 208.5-208.5S391.151 67.5 276 67.5 67.5 160.849 67.5 276 160.849 484.5 276 484.5ZM451.5 276c0 96.926-78.574 175.5-175.5 175.5S100.5 372.926 100.5 276 179.074 100.5 276 100.5 451.5 179.074 451.5 276Z"/>
  <path stroke="#E5E5E5" d="M276 100v352m176-176H100"/>
  <path stroke="#999" d="M276 92v8m0 352v8M92 276h8m352 0h8M272.789 92.028l.139 7.999m6.144 351.946.139 7.999M92.028 279.211l7.999-.139m351.946-6.144 7.999-.139M269.578 92.112l.28 7.995m12.284 351.786.28 7.995M92.112 282.422l7.995-.28m351.786-12.284 7.995-.28M266.37 92.252l.419 7.989m18.422 351.518.419 7.989M92.252 285.63l7.989-.419m351.518-18.422 7.989-.419M263.165 92.448l.558 7.981m24.554 351.142.558 7.981M92.448 288.835l7.981-.558m351.142-24.554 7.981-.558M259.963 92.7l.698 7.97m30.678 350.66.698 7.97M92.7 292.037l7.97-.698m350.66-30.678 7.97-.698M256.767 93.008l.836 7.956m36.794 350.072.836 7.956M93.008 295.233l7.956-.836m350.072-36.794 7.956-.836M253.576 93.372l.975 7.94m42.898 349.376.975 7.941M93.372 298.424l7.94-.975m349.376-42.898 7.94-.975M250.392 93.791l1.114 7.922m48.989 348.574 1.113 7.922M93.791 301.608l7.922-1.113m348.574-48.989 7.922-1.114M247.216 94.265l1.252 7.902m55.064 347.666 1.252 7.902M94.265 304.784l7.902-1.252m347.666-55.064 7.902-1.252M244.049 94.796l1.389 7.878m61.124 346.652 1.389 7.879M94.795 307.951l7.879-1.389m346.652-61.124 7.879-1.389M240.891 95.381l1.527 7.853m67.165 345.532 1.526 7.854M95.381 311.109l7.853-1.527m345.532-67.164 7.854-1.527M237.744 96.021l1.664 7.825m73.185 344.308 1.663 7.825M96.021 314.256l7.825-1.664m344.308-73.184 7.825-1.664M234.609 96.716l1.8 7.795m79.183 342.978 1.799 7.795M96.716 317.391l7.795-1.8m342.978-79.182 7.795-1.8M231.487 97.466l1.935 7.762m85.156 341.544 1.936 7.762M97.466 320.514l7.762-1.936m341.544-85.156 7.763-1.936M228.377 98.27l2.071 7.727m91.104 340.006 2.071 7.727M98.27 323.623l7.727-2.071m340.006-91.104 7.727-2.071M225.283 99.127l2.205 7.691m97.024 338.364 2.205 7.69M99.127 326.717l7.691-2.205m338.364-97.024 7.69-2.205M222.203 100.04l2.339 7.65m102.915 336.62 2.339 7.65M100.04 329.796l7.65-2.339m336.62-102.914 7.65-2.339M219.141 101.006l2.472 7.608m108.774 334.772 2.472 7.608M101.005 332.859l7.609-2.472m334.772-108.774 7.608-2.472M216.095 102.025l2.605 7.564m114.6 332.822 2.604 7.564m-233.879-114.07 7.564-2.605m332.822-114.6 7.564-2.605M213.068 103.096l2.736 7.518m120.391 330.772 2.737 7.517M103.097 338.932l7.517-2.737m330.772-120.391 7.517-2.736M210.06 104.221l2.867 7.469m126.145 328.62 2.867 7.469M104.221 341.94l7.468-2.867M440.31 212.927l7.468-2.867M207.072 105.398l2.997 7.418M341.93 439.184l2.997 7.418M105.398 344.928l7.417-2.997m326.369-131.862 7.418-2.997M204.105 106.627l3.126 7.364m137.537 324.018 3.126 7.364m-241.267-97.478 7.364-3.126m324.018-137.538 7.364-3.125M201.16 107.908l3.254 7.308m143.171 321.568 3.254 7.309M107.907 350.84l7.309-3.254m321.568-143.171 7.308-3.254m-245.854-91.922 3.381 7.251M350.38 435.51l3.381 7.251m-244.522-88.999 7.25-3.381M435.51 201.619l7.25-3.381m-250.295-86.183 3.632 7.128m159.805 313.634 3.632 7.128m-247.48-80.411 7.128-3.632m313.635-159.804 7.128-3.632m-244.606-81.844 3.507 7.19m154.307 316.376 3.507 7.19M110.622 356.66l7.19-3.507m316.375-154.306 7.191-3.507m-251.761-81.802 3.756 7.063m165.254 310.798 3.755 7.063m-248.845-76.079 7.064-3.756m310.797-165.254 7.064-3.756M186.795 115.07l3.878 6.997m170.653 307.866 3.879 6.997M115.07 365.205l6.997-3.878m307.866-170.653 6.997-3.879M184 116.651l4 6.929m176 304.841 4 6.928M116.651 368l6.928-4M428.42 188l6.928-4m-254.115-65.719 4.12 6.858m181.293 301.722 4.121 6.858m-252.486-62.952 6.857-4.12m301.723-181.294 6.857-4.12m-255.223-61.274 4.239 6.784m186.532 298.513 4.239 6.785m-253.546-58.536 6.784-4.239m298.513-186.532 6.785-4.239m-256.255-56.81 4.357 6.709m191.713 295.212 4.357 6.709m-254.529-54.101 6.71-4.357m295.212-191.713 6.709-4.358m-257.207-52.329 4.474 6.632m196.836 291.822 4.473 6.632m-255.434-49.651 6.632-4.474M421.91 177.582l6.633-4.473m-258.081-47.833 4.588 6.553m201.899 288.342 4.589 6.553m-256.262-45.186 6.553-4.589M420.17 175.051l6.554-4.589m-258.877-43.321 4.702 6.472M379.45 418.387l4.702 6.472M127.14 384.152l6.473-4.702m284.774-206.9 6.472-4.702m-259.593-38.797 4.814 6.389m211.839 281.12 4.815 6.389m-257.683-36.215 6.389-4.815m281.119-211.838 6.389-4.815m-262.743-32.261 5.034 6.217M386.76 412.778l5.034 6.217m-258.789-27.2 6.217-5.035m273.555-221.52 6.217-5.035m-256.276-29.199 4.925 6.304m216.713 277.38 4.925 6.304m-258.275-31.712 6.304-4.926m277.379-216.712 6.305-4.926m-263.267-27.67 5.142 6.128M389.13 410.824l5.143 6.128m-259.226-22.679 6.129-5.142m269.647-226.262 6.129-5.142m-261.667-20.594 5.248 6.038m230.933 265.658 5.248 6.038m-259.581-18.152 6.038-5.249m265.658-230.932 6.037-5.249M152.88 139.261l5.353 5.946m235.534 261.586 5.353 5.946M139.261 399.12l5.945-5.353m261.587-235.534 5.945-5.353m-262.226-11.449 5.456 5.851m240.063 257.436 5.456 5.851m-260.056-9.081 5.85-5.456m257.437-240.064 5.851-5.456m-264.677-4.62 5.657 5.657M400.45 400.451l5.657 5.657m-260.215 0 5.657-5.657M400.45 151.549l5.657-5.657m-257.925-2.251 5.558 5.755m244.519 253.208 5.558 5.754m-260.176-4.541 5.755-5.557m253.207-244.52 5.755-5.557m-264.717 0 5.755 5.557m253.207 244.52 5.755 5.557m-260.176 4.541 5.558-5.754m244.519-253.208 5.558-5.755m-262.387 6.871 5.851 5.456m257.437 240.064 5.851 5.456m-260.057 9.081 5.456-5.851m240.063-257.436 5.456-5.851M139.261 152.88l5.945 5.353m261.587 235.534 5.945 5.353M152.88 412.739l5.353-5.946m235.534-261.587 5.353-5.945m-261.987 16.024 6.038 5.249m265.657 230.932 6.038 5.249m-259.581 18.151 5.248-6.037m230.933-265.658 5.248-6.038m-263.709 23.072 6.217 5.035m273.555 221.52 6.218 5.035m-258.79 27.2 5.034-6.217M386.76 139.222l5.035-6.217m-256.747 24.722 6.128 5.142M410.824 389.13l6.128 5.143m-259.225 22.679 5.142-6.128M389.13 141.176l5.143-6.128m-263.267 27.67 6.304 4.926m277.38 216.712 6.304 4.926m-258.276 31.712 4.925-6.304m216.713-277.38 4.925-6.304m-260.23 34.26 6.389 4.815m281.12 211.838 6.389 4.815m-257.683 36.215 4.814-6.389m211.839-281.12 4.815-6.389m-259.593 38.797 6.472 4.702m284.774 206.9 6.472 4.702m-257.012 40.707 4.702-6.472M379.45 133.613l4.702-6.472m-258.876 43.321 6.553 4.589M420.17 376.949l6.553 4.589m-256.262 45.186 4.589-6.553m201.899-288.342 4.589-6.553m-258.081 47.832 6.632 4.474M421.91 374.418l6.632 4.473m-255.434 49.652 4.474-6.632m196.835-291.822 4.474-6.632m-257.207 52.329 6.709 4.357m295.212 191.713 6.71 4.358m-254.529 54.101 4.357-6.709m191.713-295.212 4.357-6.709m-256.254 56.81 6.784 4.239m298.513 186.532 6.784 4.239m-253.546 58.536 4.24-6.785m186.531-298.512 4.24-6.785m-255.224 61.274 6.857 4.12m301.723 181.294 6.857 4.12m-252.486 62.952 4.121-6.858m181.293-301.722 4.12-6.858M116.651 184l6.928 4M428.42 364l6.928 4M184 435.349l4-6.929m176-304.841 4-6.928m-252.93 70.144 6.997 3.878m307.866 170.653 6.997 3.879M186.795 436.93l3.878-6.997m170.653-307.866 3.879-6.997m-251.668 74.547 7.064 3.756m310.797 165.254 7.064 3.756m-248.845 76.079 3.756-7.063m165.254-310.798 3.755-7.064m-250.328 78.929 7.128 3.632m313.635 159.804 7.128 3.632m-247.48 80.411 3.632-7.128m159.805-313.634 3.632-7.128m-248.913 83.284 7.191 3.507m316.375 154.307 7.191 3.507m-246.039 84.718 3.507-7.191m154.307-316.375 3.507-7.19m-247.421 87.616 7.25 3.381M435.51 350.381l7.25 3.381M198.238 442.76l3.381-7.25M350.38 116.49l3.381-7.251M107.907 201.16l7.309 3.254m321.568 143.172 7.308 3.253M201.16 444.092l3.254-7.308m143.171-321.568 3.254-7.309m-244.212 96.198 7.364 3.126m324.017 137.538 7.365 3.125m-241.268 97.479 3.126-7.364m137.537-324.018 3.126-7.364M105.398 207.072l7.417 2.997m326.369 131.862 7.417 2.997M207.072 446.602l2.997-7.418M341.93 112.816l2.997-7.418M104.221 210.06l7.468 2.867M440.31 339.073l7.468 2.867M210.06 447.779l2.867-7.469m126.145-328.62 2.867-7.469M103.096 213.068l7.518 2.736m330.771 120.391 7.518 2.737M213.068 448.903l2.736-7.517m120.391-330.772 2.736-7.518M102.024 216.095l7.564 2.605m332.823 114.6 7.564 2.604m-233.88 114.071 2.605-7.564m114.6-332.822 2.604-7.565M101.005 219.141l7.609 2.472m334.772 108.774 7.608 2.472M219.141 450.994l2.472-7.608m108.774-334.772 2.472-7.608M100.04 222.204l7.65 2.339m336.619 102.914 7.651 2.339M222.203 451.96l2.339-7.65m102.915-336.62 2.339-7.65M99.128 225.283l7.69 2.205m338.364 97.024 7.69 2.205m-227.59 126.155 2.206-7.69m97.024-338.364 2.205-7.69M98.269 228.377l7.728 2.071m340.006 91.104 7.727 2.071M228.377 453.73l2.071-7.727m91.104-340.006 2.07-7.727M97.466 231.486l7.762 1.936m341.544 85.156 7.762 1.936m-223.048 134.02 1.936-7.762m85.156-341.544 1.936-7.762M96.716 234.608l7.795 1.8m342.978 79.182 7.795 1.8M234.609 455.284l1.799-7.795m79.183-342.978 1.8-7.795M96.021 237.744l7.825 1.664m344.308 73.184 7.825 1.664M237.744 455.979l1.663-7.825m73.185-344.308 1.664-7.825M95.381 240.89l7.853 1.527m345.532 67.164 7.853 1.527m-215.728 145.51 1.526-7.853m67.165-345.532 1.527-7.853M94.795 244.048l7.879 1.389m346.652 61.124 7.878 1.389M244.048 457.205l1.39-7.879m61.124-346.652 1.389-7.879M94.265 247.216l7.902 1.252m347.666 55.064 7.901 1.252M247.216 457.735l1.251-7.902m55.065-347.666 1.252-7.902M93.79 250.392l7.923 1.113m348.574 48.989 7.922 1.114M250.392 458.209l1.113-7.922m48.989-348.574 1.114-7.922M93.371 253.576l7.941.975m349.376 42.898 7.94.975M253.576 458.628l.975-7.94m42.898-349.376.975-7.94M93.008 256.766l7.956.836m350.072 36.794 7.956.836m-202.226 163.76.837-7.956m36.794-350.072.836-7.956M92.7 259.963l7.97.698m350.66 30.678 7.97.698M259.963 459.3l.698-7.97m30.678-350.66.698-7.97M92.448 263.165l7.981.558m351.142 24.554 7.981.558M263.165 459.552l.558-7.981m24.554-351.142.558-7.98M92.252 266.37l7.989.419m351.518 18.422 7.989.419M266.37 459.748l.419-7.989m18.422-351.518.419-7.989M92.112 269.578l7.995.28m351.786 12.284 7.995.28m-190.31 177.466.28-7.995m12.284-351.786.279-7.995M92.028 272.79l7.999.139m351.946 6.144 7.999.139m-187.183 180.76.139-7.999m6.144-351.946.139-7.999"/>
  <path stroke="#999" stroke-linejoin="round" d="M276 84v16m-16.734-15.27 1.395 15.94M242.66 86.917l2.778 15.757m-19.131-12.132 4.141 15.455m-20.116-10.418 5.472 15.035m-20.947-8.625 6.762 14.501M180 109.723l8 13.857m-22.127-4.857 9.178 13.106m-22.466-2.91 10.284 12.257m-22.634-.94 11.314 11.313m-22.63 1.036 12.257 10.284m-22.453 3.004 13.106 9.178M109.723 180l13.857 8m-21.591 6.857 14.501 6.762m-20.911 8.713 15.035 5.472m-20.072 10.503 15.455 4.141m-19.08 12.212 15.757 2.778m-17.943 13.828 15.939 1.395M84 276h16m-15.27 16.734 15.94-1.395M86.917 309.34l15.757-2.778m-12.132 19.131 15.455-4.141m-10.418 20.116 15.035-5.472m-8.625 20.947 14.501-6.762M109.723 372l13.857-8m-4.857 22.127 13.106-9.178m-2.91 22.466 12.257-10.284m-.941 22.633 11.314-11.313m1.036 22.63 10.284-12.257m3.004 22.453 9.178-13.106M180 442.277l8-13.857m6.857 21.591 6.762-14.501m8.713 20.911 5.472-15.035m10.503 20.072 4.141-15.455m12.212 19.08 2.778-15.757m13.828 17.943 1.395-15.939M276 468v-16m16.734 15.269-1.395-15.939m18.001 13.753-2.778-15.757m19.131 12.132-4.141-15.455m20.116 10.418-5.472-15.035m20.947 8.625-6.762-14.501M372 442.277l-8-13.857m22.127 4.857-9.178-13.106m22.466 2.91-10.284-12.257m22.634.94-11.314-11.313m22.63-1.036-12.257-10.284m22.453-3.004-13.106-9.178M442.277 372l-13.857-8m21.591-6.857-14.501-6.762m20.911-8.713-15.035-5.472m20.072-10.503-15.455-4.141m19.08-12.212-15.757-2.778m17.943-13.828-15.939-1.395M468 276h-16m15.269-16.734-15.939 1.395m13.753-18.001-15.757 2.778m12.132-19.131-15.455 4.141m10.418-20.116-15.035 5.472m8.625-20.947-14.501 6.762M442.277 180l-13.857 8m4.857-22.127-13.106 9.178m2.91-22.466-12.257 10.284m.941-22.633-11.314 11.313m-1.036-22.63-10.284 12.257m-3.004-22.453-9.178 13.106M372 109.723l-8 13.857m-6.857-21.591-6.762 14.501m-8.713-20.91-5.472 15.034m-10.503-20.072-4.141 15.455m-12.212-19.08-2.778 15.757m-13.828-17.943-1.395 15.939"/>
  <path stroke="#333" d="m423.078 128.922-22.627 22.627M151.549 400.451l-22.627 22.627m0-294.156 22.627 22.627m248.902 248.902 22.627 22.627M276 68v32m0 352v32M68 276h32m352 0h32"/>
  <path fill="#333" d="M440.572 117.951h-1.531l-6.227-9.594h-.062l.055.875c.02.323.036.67.047 1.039.015.365.023.737.023 1.118v6.562h-1.234v-11.422h1.523l6.203 9.563h.055a53.6 53.6 0 0 1-.039-.774c-.016-.338-.031-.7-.047-1.086-.011-.39-.016-.752-.016-1.086v-6.617h1.25v11.422Zm9.477 0h-6.36v-11.422h6.36v1.172h-5.031v3.695h4.742v1.157h-4.742v4.226h5.031v1.172ZM108.178 443.01c0 .677-.17 1.255-.508 1.734-.333.474-.802.836-1.406 1.086-.604.25-1.315.375-2.133.375-.432 0-.841-.021-1.227-.062a8.43 8.43 0 0 1-1.062-.18 4.56 4.56 0 0 1-.852-.289V444.4c.391.162.867.313 1.43.454a7.54 7.54 0 0 0 1.766.203c.572 0 1.057-.076 1.453-.227.396-.156.695-.378.898-.664.208-.292.313-.641.313-1.047 0-.39-.086-.716-.258-.976-.172-.266-.459-.506-.86-.719-.395-.219-.937-.451-1.625-.695a8.783 8.783 0 0 1-1.281-.563 3.994 3.994 0 0 1-.93-.703 2.657 2.657 0 0 1-.57-.906 3.442 3.442 0 0 1-.187-1.18c0-.609.153-1.13.461-1.563.312-.437.742-.77 1.289-1 .552-.234 1.185-.351 1.898-.351.609 0 1.172.057 1.688.172.52.114.997.268 1.429.461l-.414 1.14a8.92 8.92 0 0 0-1.312-.429 5.829 5.829 0 0 0-1.422-.172c-.49 0-.904.073-1.242.219-.334.14-.589.341-.766.601-.177.26-.266.57-.266.93 0 .401.084.734.25 1 .172.265.443.502.813.711.375.203.87.416 1.484.64a10.45 10.45 0 0 1 1.711.782c.469.27.826.604 1.071 1 .244.39.367.888.367 1.492Zm15.312-8.383-3.054 11.422H119.1l-2.266-7.688a25.865 25.865 0 0 1-.195-.656l-.164-.633c-.052-.203-.097-.38-.133-.531l-.071-.352c-.01.079-.031.193-.062.344a9.495 9.495 0 0 1-.109.524c-.042.198-.094.408-.157.632-.057.224-.119.451-.187.68l-2.203 7.68h-1.336l-3.031-11.422h1.382l1.836 7.164c.063.24.12.477.172.711.057.229.107.453.149.672a21.075 21.075 0 0 1 .226 1.25c.026-.203.06-.414.102-.633.041-.224.086-.451.133-.68.052-.229.106-.461.164-.695.062-.234.127-.469.195-.703l2.055-7.086h1.367l2.14 7.141c.073.244.141.487.204.726.062.24.117.474.164.703.052.224.096.44.132.649.042.203.079.396.11.578.036-.255.081-.524.133-.805.052-.281.112-.575.179-.883a56.8 56.8 0 0 1 .235-.953l1.836-7.156h1.39Zm315.731 8.383c0 .677-.17 1.255-.508 1.734-.333.474-.802.836-1.406 1.086-.605.25-1.315.375-2.133.375-.432 0-.841-.021-1.227-.062a8.43 8.43 0 0 1-1.062-.18 4.56 4.56 0 0 1-.852-.289V444.4c.391.162.867.313 1.43.454a7.54 7.54 0 0 0 1.766.203c.572 0 1.057-.076 1.453-.227.395-.156.695-.378.898-.664.208-.292.313-.641.313-1.047 0-.39-.086-.716-.258-.976-.172-.266-.459-.506-.86-.719-.395-.219-.937-.451-1.625-.695a8.783 8.783 0 0 1-1.281-.563 3.994 3.994 0 0 1-.93-.703 2.657 2.657 0 0 1-.57-.906 3.442 3.442 0 0 1-.187-1.18c0-.609.153-1.13.461-1.563.312-.437.742-.77 1.289-1 .552-.234 1.185-.351 1.898-.351.609 0 1.172.057 1.688.172.52.114.997.268 1.429.461l-.414 1.14a8.92 8.92 0 0 0-1.312-.429 5.829 5.829 0 0 0-1.422-.172c-.49 0-.904.073-1.242.219-.334.14-.589.341-.766.601-.177.26-.266.57-.266.93 0 .401.084.734.25 1 .172.265.443.502.813.711.375.203.87.416 1.484.64a10.45 10.45 0 0 1 1.711.782c.469.27.826.604 1.071 1 .244.39.367.888.367 1.492Zm8.695 3.039h-6.359v-11.422h6.359v1.172h-5.031v3.695h4.742v1.156h-4.742v4.227h5.031v1.172ZM109.529 117.951h-1.531l-6.227-9.594h-.062l.055.875c.021.323.036.67.047 1.039.015.365.023.737.023 1.118v6.562H100.6v-11.422h1.523l6.203 9.563h.055a53.6 53.6 0 0 1-.039-.774c-.016-.338-.031-.7-.047-1.086a42.8 42.8 0 0 1-.016-1.086v-6.617h1.25v11.422Zm16.094-11.422-3.055 11.422h-1.336l-2.265-7.687a32.703 32.703 0 0 1-.196-.657 53.4 53.4 0 0 0-.164-.632 36.004 36.004 0 0 1-.132-.532l-.071-.351a5.14 5.14 0 0 1-.062.344 8.712 8.712 0 0 1-.11.523 9.35 9.35 0 0 1-.156.633c-.057.224-.12.45-.187.679l-2.203 7.68h-1.336l-3.032-11.422h1.383l1.836 7.164c.063.24.12.477.172.711.057.229.107.453.148.672.047.219.089.432.125.641.037.208.071.411.102.609.026-.203.06-.414.102-.633.041-.224.085-.45.132-.679.052-.229.107-.461.164-.696.063-.234.128-.468.196-.703l2.054-7.086h1.368l2.14 7.141c.073.245.141.487.203.726.063.24.118.474.164.704.053.224.097.44.133.648.042.203.078.396.11.578.036-.255.08-.523.132-.805.053-.281.112-.575.18-.882.073-.308.151-.625.234-.953l1.836-7.157h1.391ZM281.062 50h-3.078l-4.968-8.64h-.071c.021.359.039.72.055 1.085l.047 1.094.047 1.086V50h-2.164V38.578h3.054l4.961 8.555H279a60.11 60.11 0 0 0-.039-1.055l-.047-1.047-.031-1.047v-5.406h2.179V50Zm-.789 460.828c0 .677-.164 1.266-.492 1.766-.328.5-.807.885-1.437 1.156-.625.271-1.386.406-2.282.406-.395 0-.783-.026-1.164-.078a8.002 8.002 0 0 1-1.086-.226 6.924 6.924 0 0 1-.984-.383v-2.25a18.8 18.8 0 0 0 1.688.648 5.492 5.492 0 0 0 1.734.289c.396 0 .714-.052.953-.156.245-.104.422-.247.531-.43.11-.182.164-.39.164-.625 0-.286-.096-.531-.289-.734-.192-.203-.458-.393-.797-.57-.333-.177-.71-.368-1.132-.571a13.092 13.092 0 0 1-.868-.453 5.035 5.035 0 0 1-.89-.664 3.191 3.191 0 0 1-.695-.945c-.178-.375-.266-.823-.266-1.344 0-.682.156-1.266.469-1.75.312-.484.758-.854 1.336-1.109.583-.261 1.27-.391 2.062-.391.594 0 1.159.07 1.695.211.542.135 1.107.333 1.696.594l-.781 1.883a13.012 13.012 0 0 0-1.415-.493 4.61 4.61 0 0 0-1.273-.179c-.302 0-.56.049-.773.148a1.046 1.046 0 0 0-.649 1.008c0 .271.078.5.234.687.162.183.402.36.719.532.323.172.724.372 1.203.601a9.116 9.116 0 0 1 1.493.867c.416.297.737.649.961 1.055.223.401.335.901.335 1.5ZM512.031 282h-6.578v-11.422h6.578v1.984h-4.156v2.508h3.867v1.985h-3.867V280h4.156v2ZM51.734 270.578 48.828 282H46.07l-1.547-6a12.77 12.77 0 0 1-.125-.523 60.051 60.051 0 0 1-.32-1.555c-.042-.25-.07-.448-.086-.594a7.567 7.567 0 0 1-.094.586 21.84 21.84 0 0 1-.148.781 29.558 29.558 0 0 1-.281 1.321L41.929 282h-2.75l-2.913-11.422h2.382l1.461 6.234c.042.188.089.412.141.672.057.261.112.534.164.821.057.281.107.554.148.82.047.26.081.487.102.68a54.713 54.713 0 0 1 .234-1.493c.053-.276.105-.531.157-.765.052-.235.099-.425.14-.57l1.664-6.399h2.29l1.663 6.399c.037.14.079.33.126.57a24.135 24.135 0 0 1 .296 1.578c.047.26.081.487.102.68.036-.261.086-.576.148-.946.068-.375.138-.747.211-1.117.078-.37.146-.68.203-.93l1.454-6.234h2.382ZM275.5 76h1l9.5 24h-20l4.75-12 4.75-12Z"/>
</svg>
