<svg xmlns="http://www.w3.org/2000/svg" width="268" height="494" fill="none" viewBox="0 0 268 494">
  <mask id="a" width="181.34" height="341.492" x="43.394" y="75.189" fill="#000" maskUnits="userSpaceOnUse">
    <path fill="#fff" d="M43.394 75.189h181.34v341.492H43.394z"/>
    <path fill-rule="evenodd" d="m188.374 102.481 17.21-16.264-1.14 47.345c-.043 1.754-2.162 2.608-3.408 1.372l-10.374-10.285-51.685 116.087a8.001 8.001 0 0 1-7.293 13.924L63.327 408.192l-1.828-.814 68.357-153.532a8.002 8.002 0 0 1 5.467-14.736l51.685-116.088-14.584-.827c-1.752-.099-2.536-2.245-1.261-3.45l17.211-16.264Z" clip-rule="evenodd"/>
  </mask>
  <path fill="#0080FF" fill-rule="evenodd" d="m188.374 102.481 17.21-16.264-1.14 47.345c-.043 1.754-2.162 2.608-3.408 1.372l-10.374-10.285-51.685 116.087a8.001 8.001 0 0 1-7.293 13.924L63.327 408.192l-1.828-.814 68.357-153.532a8.002 8.002 0 0 1 5.467-14.736l51.685-116.088-14.584-.827c-1.752-.099-2.536-2.245-1.261-3.45l17.211-16.264Z" clip-rule="evenodd"/>
  <path fill="#F7F7F7" d="m205.584 86.217 1 .024.058-2.4-1.744 1.65.686.726Zm-17.21 16.264.687.727-.687-.727Zm16.07 31.081.999.024-.999-.024Zm-3.408 1.372.704-.71-.704.71Zm-10.374-10.285.705-.71-1.029-1.02-.589 1.324.913.406Zm-51.685 116.087-.913-.406-.316.708.608.482.621-.784Zm-7.293 13.924.29-.957-.845-.257-.359.807.914.407ZM63.327 408.192l-.407.913.913.407.407-.913-.913-.407Zm-1.828-.814-.913-.406-.407.913.914.407.406-.914Zm68.357-153.532.914.407.359-.807-.756-.456-.517.856Zm5.467-14.736-.166.986.764.128.316-.708-.914-.406Zm51.685-116.088.914.407.589-1.323-1.446-.082-.057.998Zm-14.584-.827-.057.999.057-.999Zm-1.261-3.45-.687-.727.687.727Zm33.735-33.255-17.211 16.264 1.374 1.454 17.21-16.264-1.373-1.454Zm.545 48.096 1.141-47.345-1.999-.048-1.141 47.345 1.999.048Zm-5.111 2.059c1.869 1.853 5.048.572 5.111-2.059l-1.999-.048c-.021.877-1.081 1.304-1.704.686l-1.408 1.421Zm-10.374-10.286 10.374 10.286 1.408-1.421-10.373-10.285-1.409 1.42Zm-.209-1.116L138.064 240.33l1.827.813 51.685-116.087-1.827-.813ZM138.356 241.52a7.002 7.002 0 0 1 2.037 8.328l1.828.814c1.706-3.833.517-8.217-2.622-10.709l-1.243 1.567Zm2.037 8.328a7 7 0 0 1-8.419 3.855l-.581 1.914c4.282 1.3 8.961-.762 10.828-4.955l-1.828-.814Zm-9.623 4.405L62.413 407.785l1.827.814 68.357-153.533-1.827-.813ZM63.733 407.278l-1.827-.813-.813 1.827 1.827.813.813-1.827Zm-1.32.507 68.357-153.532-1.827-.814-68.357 153.533 1.827.813Zm67.96-154.795a7.001 7.001 0 0 1-2.769-8.836l-1.827-.814a9 9 0 0 0 3.563 11.362l1.033-1.712Zm-2.769-8.836a7.001 7.001 0 0 1 7.553-4.058l.332-1.973c-3.952-.666-8.006 1.385-9.712 5.217l1.827.814Zm8.633-4.638 51.685-116.087-1.827-.813-51.686 116.087 1.828.813Zm36.13-116.322 14.585.827.113-1.997-14.585-.827-.113 1.997Zm-1.891-5.176c-1.912 1.808-.736 5.027 1.891 5.176l.113-1.997c-.876-.05-1.267-1.123-.63-1.725l-1.374-1.454Zm17.211-16.264-17.211 16.264 1.374 1.454 17.211-16.264-1.374-1.454Z" mask="url(#a)"/>
</svg>
