<svg width="416" height="416" viewBox="0 0 416 416" fill="none" xmlns="http://www.w3.org/2000/svg">
<g id="Degree=2°, Tick size=Primary">
<path id="Tickmarks" d="M208 0V32M208 384V416M0 208H32M384 208H416M200.741 0.126709L201.858 32.1072M214.143 383.893L215.259 415.873M0.126953 215.259L32.1075 214.142M383.893 201.858L415.874 200.741M193.491 0.506836L195.723 32.4289M220.277 383.571L222.51 415.493M0.506836 222.51L32.4289 220.277M383.571 195.723L415.493 193.491M186.258 1.1394L189.603 32.9641M226.397 383.036L229.742 414.861M1.13916 229.742L32.9639 226.397M383.036 189.603L414.86 186.258M179.052 2.02417L183.505 33.7127M232.495 382.287L236.948 413.976M2.02441 236.948L33.713 232.494M382.287 183.505L413.976 179.052M171.881 3.15991L177.438 34.6738M238.562 381.326L244.119 412.84M3.16016 244.119L34.674 238.562M381.327 177.438L412.841 171.881M164.754 4.54541L171.408 35.8461M244.593 380.154L251.246 411.455M4.54541 251.246L35.8461 244.592M380.154 171.408L411.455 164.755M157.68 6.17847L165.422 37.2279M250.579 378.772L258.32 409.821M6.17871 258.32L37.2282 250.578M378.772 165.422L409.821 157.68M150.667 8.05762L159.488 38.818M256.512 377.182L265.333 407.943M8.05762 265.333L38.818 256.512M377.182 159.488L407.943 150.667M143.725 10.1802L153.613 40.614M262.387 375.386L272.276 405.82M10.1802 272.276L40.614 262.387M375.386 153.613L405.82 143.724M136.86 12.5439L147.805 42.6141M268.196 373.386L279.14 403.456M12.5439 279.14L42.6141 268.195M373.386 147.804L403.456 136.86M130.081 15.1458L142.068 44.8156M273.93 371.184L285.918 400.854M15.145 285.918L44.8149 273.931M371.184 142.069L400.853 130.082M123.398 17.9824L136.414 47.2159M279.585 368.784L292.601 398.017M17.9819 292.601L47.2154 279.586M368.784 136.414L398.017 123.399M116.818 21.0508L130.846 49.8122M285.153 366.188L299.181 394.949M21.0503 299.181L49.8117 285.153M366.188 130.847L394.949 116.819M110.35 24.3469L125.373 52.6012M290.626 363.399L305.65 391.653M24.3462 305.65L52.6005 290.627M363.398 125.373L391.653 110.35M104 27.8667L120 55.5795M296 360.42L312 388.133M27.8662 312L55.579 296M360.42 120L388.133 104M97.7764 31.606L114.734 58.7435M301.265 357.256L318.223 384.394M31.6055 318.223L58.743 301.266M357.256 114.734L384.393 97.7767M91.6875 35.5603L109.582 62.0895M306.417 353.911L324.312 380.44M35.5596 324.312L62.0888 306.418M353.91 109.582L380.439 91.6879M85.7402 39.7246L104.549 65.6132M311.45 350.387L330.259 376.276M39.7241 330.26L65.6127 311.45M350.387 104.55L376.275 85.7407M79.9419 44.0938L99.6431 69.3101M316.356 346.69L336.057 371.906M44.0933 336.058L69.3096 316.356M346.689 99.6436L371.906 79.9424M74.2998 48.6628L94.869 73.1763M321.13 342.824L341.699 367.337M48.6621 341.7L73.1755 321.13M342.823 94.8694L367.337 74.3002M68.8203 53.4258L90.2325 77.2064M325.766 338.793L347.178 362.574M53.4253 347.179L77.2059 325.767M338.793 90.2329L362.574 68.8207M63.5103 58.3772L85.7393 81.3961M330.259 334.604L352.488 357.623M58.3765 352.489L81.3953 330.26M334.603 85.74L357.622 63.5109M58.3765 63.5112L81.3953 85.7403M334.603 330.26L357.622 352.489M63.5103 357.623L85.7393 334.604M330.259 81.3962L352.488 58.3774M53.4253 68.8206L77.2059 90.2327M338.793 325.767L362.574 347.179M68.8203 362.574L90.2325 338.793M325.767 77.2063L347.179 53.4257M48.6621 74.3L73.1755 94.8693M342.823 321.13L367.337 341.7M74.2998 367.337L94.869 342.823M321.13 73.176L341.699 48.6626M44.0933 79.9424L69.3096 99.6436M346.689 316.356L371.906 336.058M79.9419 371.906L99.6431 346.69M316.356 69.3101L336.057 44.0937M39.7241 85.7407L65.6127 104.55M350.387 311.45L376.275 330.26M85.7402 376.276L104.549 350.387M311.45 65.6133L330.259 39.7247M35.5596 91.688L62.0888 109.582M353.91 306.418L380.439 324.312M91.6875 380.44L109.582 353.91M306.417 62.0894L324.312 35.5602M31.6055 97.7769L58.743 114.734M357.256 301.266L384.393 318.223M97.7764 384.394L114.734 357.257M301.265 58.7437L318.223 31.6061M27.8662 104L55.579 120M360.42 296L388.133 312M104 388.133L120 360.42M296 55.5796L312 27.8668M24.3462 110.35L52.6005 125.373M363.398 290.627L391.653 305.65M110.35 391.653L125.373 363.399M290.626 52.6011L305.65 24.3468M21.0503 116.818L49.8117 130.846M366.188 285.153L394.949 299.181M116.818 394.949L130.846 366.187M285.153 49.8118L299.181 21.0504M17.9819 123.399L47.2154 136.414M368.784 279.585L398.017 292.601M123.398 398.017L136.414 368.784M279.585 47.2158L292.601 17.9824M15.145 130.082L44.8149 142.069M371.184 273.931L400.853 285.918M130.081 400.854L142.068 371.184M273.93 44.8157L285.918 15.1458M12.5435 136.86L42.6136 147.805M373.385 268.196L403.455 279.14M136.859 403.456L147.804 373.386M268.195 42.6143L279.14 12.5441M10.1797 143.724L40.6135 153.613M375.386 262.387L405.82 272.276M143.724 405.82L153.613 375.386M262.387 40.614L272.275 10.1802M8.05713 150.667L38.8175 159.488M377.182 256.512L407.942 265.333M150.667 407.942L159.487 377.182M256.512 38.8179L265.332 8.0575M6.17822 157.68L37.2277 165.422M378.771 250.578L409.821 258.32M157.68 409.822L165.421 378.772M250.578 37.228L258.32 6.17856M4.54492 164.754L35.8456 171.408M380.154 244.592L411.455 251.245M164.754 411.455L171.407 380.154M244.592 35.8459L251.245 4.54522M3.15967 171.881L34.6735 177.438M381.326 238.562L412.84 244.119M171.881 412.84L177.438 381.326M238.562 34.6738L244.119 3.15998M2.02393 179.052L33.7125 183.506M382.287 232.495L413.975 236.948M179.051 413.976L183.505 382.287M232.494 33.7129L236.948 2.02431M1.13867 186.258L32.9634 189.603M383.035 226.397L414.86 229.742M186.257 414.861L189.602 383.036M226.396 32.9641L229.741 1.13941M0.506348 193.491L32.4284 195.723M383.571 220.277L415.493 222.51M193.49 415.493L195.722 383.571M220.277 32.429L222.509 0.506905M0.126953 200.741L32.1075 201.858M383.893 214.142L415.874 215.259M200.741 415.873L201.858 383.893M214.143 32.1072L215.259 0.126671" class="ob-instrument-tick-mark-primary-color-stroke"/>
</g>
</svg>