<svg width="416" height="416" viewBox="0 0 416 416" fill="none" xmlns="http://www.w3.org/2000/svg">
<g id="Degree=5°, Tick size=Secondary">
<path id="Tickmarks" d="M208 16V32M191.266 16.7307L192.661 32.6698M174.66 18.917L177.438 34.6739M158.307 22.5422L162.448 37.9971M142.332 27.5791L147.804 42.6142M126.857 33.989L133.619 48.4899M112 41.7231L120 55.5796M97.8733 50.7229L107.051 63.8293M84.5848 60.9194L94.8694 73.1761M72.2355 72.2356L83.5492 83.5493M60.9194 84.5847L73.1761 94.8693M50.7228 97.8733L63.8292 107.051M41.7231 112L55.5796 120M33.9889 126.857L48.4898 133.619M27.579 142.332L42.6141 147.804M22.5422 158.307L37.9971 162.448M18.9169 174.66L34.6739 177.438M16.7306 191.266L32.6697 192.661M16 208H32M16.7306 224.734L32.6697 223.339M18.9169 241.34L34.6739 238.562M22.5422 257.693L37.9971 253.552M27.579 273.668L42.6141 268.196M33.9889 289.143L48.4898 282.381M41.7231 304L55.5796 296M50.7228 318.127L63.8292 308.949M60.9194 331.415L73.1761 321.131M72.2355 343.764L83.5492 332.451M84.5848 355.081L94.8694 342.824M97.8733 365.277L107.051 352.171M112 374.277L120 360.42M126.857 382.011L133.619 367.51M142.332 388.421L147.804 373.386M158.307 393.458L162.448 378.003M174.66 397.083L177.438 381.326M191.266 399.269L192.661 383.33M208 400V384M224.734 399.269L223.339 383.33M241.34 397.083L238.562 381.326M257.693 393.458L253.552 378.003M273.668 388.421L268.196 373.386M289.143 382.011L282.381 367.51M304 374.277L296 360.42M318.127 365.277L308.949 352.171M331.415 355.081L321.131 342.824M343.765 343.764L332.451 332.451M355.081 331.415L342.824 321.131M365.277 318.127L352.171 308.949M374.277 304L360.42 296M382.011 289.143L367.51 282.381M388.421 273.668L373.386 268.196M393.458 257.693L378.003 253.552M397.083 241.34L381.326 238.562M399.269 224.734L383.33 223.339M400 208H384M399.269 191.266L383.33 192.661M397.083 174.66L381.326 177.438M393.458 158.307L378.003 162.448M388.421 142.332L373.386 147.804M382.011 126.857L367.51 133.619M374.277 112L360.42 120M365.277 97.8733L352.171 107.051M355.081 84.5847L342.824 94.8693M343.765 72.2356L332.451 83.5493M331.415 60.9194L321.131 73.1761M318.127 50.7229L308.949 63.8293M304 41.7231L296 55.5796M289.143 33.989L282.381 48.4899M273.668 27.5791L268.196 42.6142M257.693 22.5422L253.552 37.9971M241.34 18.917L238.562 34.6739M224.734 16.7307L223.339 32.6698" stroke-linejoin="round" class="ob-instrument-tick-mark-secondary-color-stroke"/>
</g>
</svg>