<svg width="416" height="416" viewBox="0 0 416 416" fill="none" xmlns="http://www.w3.org/2000/svg">
<g id="Degree=1°, Tick size=Secondary">
<path id="Tickmarks" d="M208 16V32M204.649 16.0293L204.928 32.0269M201.299 16.1169L201.858 32.1072M197.952 16.2632L198.789 32.2413M194.607 16.4678L195.723 32.4288M191.266 16.7307L192.661 32.6698M187.931 17.0518L189.603 32.9641M184.601 17.4312L186.551 33.3119M181.279 17.8687L183.506 33.7129M177.965 18.3638L180.468 34.1668M174.66 18.917L177.438 34.6739M171.365 19.5276L174.418 35.2336M168.081 20.1956L171.408 35.8459M164.809 20.9209L168.409 36.5108M161.551 21.7031L165.422 37.2279M158.307 22.5422L162.448 37.9971M155.078 23.4377L159.488 38.8179M151.865 24.3894L156.543 39.6903M148.669 25.3972L153.613 40.6141M145.491 26.4604L150.7 41.5887M142.332 27.5791L147.804 42.6142M139.193 28.7524L144.927 43.6897M136.076 29.9807L142.069 44.8157M132.98 31.2632L139.231 45.9913M129.907 32.5994L136.414 47.2161M126.857 33.989L133.619 48.4899M123.833 35.4316L130.847 49.8123M120.834 36.9268L128.098 51.1829M117.861 38.4741L125.373 52.6013M114.917 40.073L122.673 54.0669M112 41.7231L120 55.5796M109.113 43.4238L117.353 57.1385M106.255 45.1748L114.734 58.7436M103.429 46.9753L112.144 60.3941M100.635 48.8247L109.582 62.0893M97.8733 50.7229L107.051 63.8293M95.1453 52.6687L104.55 65.613M92.4515 54.6619L102.081 67.44M89.793 56.7019L99.6436 69.3101M87.1705 58.7881L97.2397 71.2224M84.5847 60.9194L94.8693 73.1761M82.0366 63.0957L92.5336 75.1711M79.5269 65.3162L90.2329 77.2065M77.0563 67.5801L87.9682 79.2817M74.6256 69.8867L85.7401 81.3962M72.2355 72.2356L83.5492 83.5493M69.8867 74.6255L81.3962 85.74M67.5801 77.0564L79.2817 87.9684M65.3162 79.5269L77.2065 90.2329M63.0957 82.0366L75.1711 92.5336M60.9194 84.5847L73.1761 94.8693M58.788 87.1704L71.2223 97.2395M56.7019 89.793L69.3101 99.6436M54.662 92.4514L67.4402 102.08M52.6687 95.1453L65.613 104.55M50.7228 97.8733L63.8292 107.051M48.8248 100.635L62.0894 109.582M46.9752 103.429L60.3939 112.143M45.1748 106.256L58.7436 114.734M43.4238 109.113L57.1385 117.353M41.7231 112L55.5796 120M40.073 114.917L54.0669 122.673M38.4741 117.862L52.6013 125.373M36.9268 120.834L51.1829 128.098M35.4315 123.833L49.8122 130.847M33.9889 126.857L48.4898 133.619M32.5992 129.906L47.216 136.414M31.2631 132.98L45.9911 139.231M29.9807 136.075L44.8157 142.069M28.7526 139.193L43.6898 144.927M27.579 142.332L42.6141 147.804M26.4604 145.491L41.5887 150.7M25.3972 148.669L40.6141 153.613M24.3895 151.865L39.6904 156.543M23.4377 155.078L38.8179 159.488M22.5422 158.307L37.9971 162.448M21.7032 161.551L37.228 165.422M20.9209 164.809L36.5108 168.409M20.1957 168.081L35.846 171.408M19.5276 171.365L35.2336 174.418M18.9169 174.66L34.6738 177.438M18.3639 177.965L34.1669 180.468M17.8685 181.279L33.7128 183.506M17.4312 184.601L33.3119 186.551M17.0518 187.931L32.9641 189.603M16.7306 191.266L32.6697 192.661M16.4677 194.607L32.4287 195.723M16.2632 197.951L32.2413 198.789M16.1169 201.299L32.1072 201.858M16.0293 204.649L32.0269 204.928M16 208H32M16.0293 211.351L32.0269 211.072M16.1169 214.701L32.1072 214.142M16.2632 218.049L32.2413 217.211M16.4677 221.393L32.4287 220.277M16.7306 224.734L32.6697 223.339M17.0518 228.069L32.9641 226.397M17.4312 231.399L33.3119 229.449M17.8685 234.721L33.7128 232.494M18.3639 238.035L34.1669 235.532M18.9169 241.34L34.6738 238.562M19.5276 244.635L35.2336 241.582M20.1957 247.919L35.846 244.592M20.9209 251.191L36.5108 247.591M21.7032 254.449L37.228 250.578M22.5422 257.693L37.9971 253.552M23.4377 260.922L38.8179 256.512M24.3895 264.135L39.6904 259.457M25.3972 267.331L40.6141 262.387M26.4604 270.509L41.5887 265.3M27.579 273.668L42.6141 268.196M28.7526 276.807L43.6898 271.073M29.9807 279.925L44.8157 273.931M31.2631 283.021L45.9911 276.769M32.5992 286.094L47.216 279.586M33.9889 289.143L48.4898 282.381M35.4315 292.167L49.8122 285.153M36.9268 295.166L51.1829 287.902M38.4741 298.139L52.6013 290.627M40.073 301.083L54.0669 293.327M41.7231 304L55.5796 296M43.4238 306.887L57.1385 298.647M45.1748 309.745L58.7436 301.266M46.9752 312.571L60.3939 303.857M48.8248 315.365L62.0894 306.418M50.7228 318.127L63.8292 308.949M52.6687 320.855L65.613 311.45M54.662 323.549L67.4402 313.92M56.7019 326.207L69.3101 316.356M58.788 328.83L71.2223 318.76M60.9194 331.415L73.1761 321.131M63.0957 333.963L75.1711 323.466M65.3162 336.473L77.2065 325.767M67.5801 338.944L79.2817 328.032M69.8867 341.375L81.3962 330.26M72.2355 343.764L83.5492 332.451M74.6256 346.113L85.7401 334.604M77.0563 348.42L87.9682 336.718M79.5269 350.684L90.2329 338.794M82.0366 352.904L92.5336 340.829M84.5847 355.081L94.8693 342.824M87.1705 357.212L97.2397 344.778M89.793 359.298L99.6436 346.69M92.4515 361.338L102.081 348.56M95.1453 363.331L104.55 350.387M97.8733 365.277L107.051 352.171M100.635 367.175L109.582 353.911M103.429 369.025L112.144 355.606M106.255 370.825L114.734 357.256M109.113 372.576L117.353 358.861M112 374.277L120 360.42M114.917 375.927L122.673 361.933M117.861 377.526L125.373 363.399M120.834 379.073L128.098 364.817M123.833 380.568L130.847 366.188M126.857 382.011L133.619 367.51M129.907 383.401L136.414 368.784M132.98 384.737L139.231 370.009M136.076 386.019L142.069 371.184M139.193 387.248L144.927 372.31M142.332 388.421L147.804 373.386M145.491 389.54L150.7 374.411M148.669 390.603L153.613 375.386M151.865 391.611L156.543 376.31M155.078 392.562L159.488 377.182M158.307 393.458L162.448 378.003M161.551 394.297L165.422 378.772M164.809 395.079L168.409 379.489M168.081 395.804L171.408 380.154M171.365 396.472L174.418 380.766M174.66 397.083L177.438 381.326M177.965 397.636L180.468 381.833M181.279 398.131L183.506 382.287M184.601 398.569L186.551 382.688M187.931 398.948L189.603 383.036M191.266 399.269L192.661 383.33M194.607 399.532L195.723 383.571M197.952 399.737L198.789 383.759M201.299 399.883L201.858 383.893M204.649 399.971L204.928 383.973M208 400V384M211.351 399.971L211.072 383.973M214.701 399.883L214.142 383.893M218.048 399.737L217.211 383.759M221.393 399.532L220.277 383.571M224.734 399.269L223.339 383.33M228.069 398.948L226.397 383.036M231.399 398.569L229.449 382.688M234.721 398.131L232.494 382.287M238.035 397.636L235.532 381.833M241.34 397.083L238.562 381.326M244.635 396.472L241.582 380.766M247.919 395.804L244.592 380.154M251.191 395.079L247.591 379.489M254.449 394.297L250.578 378.772M257.693 393.458L253.552 378.003M260.922 392.562L256.512 377.182M264.135 391.611L259.457 376.31M267.331 390.603L262.387 375.386M270.509 389.54L265.3 374.411M273.668 388.421L268.196 373.386M276.807 387.248L271.073 372.31M279.924 386.019L273.931 371.184M283.02 384.737L276.769 370.009M286.093 383.401L279.586 368.784M289.143 382.011L282.381 367.51M292.167 380.568L285.153 366.188M295.166 379.073L287.902 364.817M298.139 377.526L290.627 363.399M301.083 375.927L293.327 361.933M304 374.277L296 360.42M306.887 372.576L298.647 358.861M309.745 370.825L301.266 357.256M312.571 369.025L303.856 355.606M315.365 367.175L306.418 353.911M318.127 365.277L308.949 352.171M320.855 363.331L311.45 350.387M323.548 361.338L313.919 348.56M326.207 359.298L316.356 346.69M328.829 357.212L318.76 344.778M331.415 355.081L321.131 342.824M333.963 352.904L323.466 340.829M336.473 350.684L325.767 338.794M338.944 348.42L328.032 336.718M341.374 346.113L330.26 334.604M343.765 343.764L332.451 332.451M346.113 341.375L334.604 330.26M348.42 338.944L336.718 328.032M350.684 336.473L338.794 325.767M352.904 333.963L340.829 323.466M355.081 331.415L342.824 321.131M357.212 328.83L344.778 318.76M359.298 326.207L346.69 316.356M361.338 323.549L348.56 313.92M363.331 320.855L350.387 311.45M365.277 318.127L352.171 308.949M367.175 315.365L353.911 306.418M369.025 312.571L355.606 303.857M370.825 309.745L357.256 301.266M372.576 306.887L358.861 298.647M374.277 304L360.42 296M375.927 301.083L361.933 293.327M377.526 298.139L363.399 290.627M379.073 295.166L364.817 287.902M380.568 292.167L366.188 285.153M382.011 289.143L367.51 282.381M383.401 286.094L368.784 279.586M384.737 283.021L370.009 276.769M386.019 279.925L371.184 273.931M387.247 276.807L372.31 271.073M388.421 273.668L373.386 268.196M389.54 270.509L374.411 265.3M390.603 267.331L375.386 262.387M391.61 264.135L376.31 259.457M392.562 260.922L377.182 256.512M393.458 257.693L378.003 253.552M394.297 254.449L378.772 250.578M395.079 251.191L379.489 247.591M395.804 247.919L380.154 244.592M396.472 244.635L380.766 241.582M397.083 241.34L381.326 238.562M397.636 238.035L381.833 235.532M398.131 234.721L382.287 232.494M398.569 231.399L382.688 229.449M398.948 228.069L383.036 226.397M399.269 224.734L383.33 223.339M399.532 221.393L383.571 220.277M399.737 218.049L383.759 217.211M399.883 214.701L383.893 214.142M399.971 211.351L383.973 211.072M400 208H384M399.971 204.649L383.973 204.928M399.883 201.299L383.893 201.858M399.737 197.951L383.759 198.789M399.532 194.607L383.571 195.723M399.269 191.266L383.33 192.661M398.948 187.931L383.036 189.603M398.569 184.601L382.688 186.551M398.131 181.279L382.287 183.506M397.636 177.965L381.833 180.468M397.083 174.66L381.326 177.438M396.472 171.365L380.766 174.418M395.804 168.081L380.154 171.408M395.079 164.809L379.489 168.409M394.297 161.551L378.772 165.422M393.458 158.307L378.003 162.448M392.562 155.078L377.182 159.488M391.61 151.865L376.31 156.543M390.603 148.669L375.386 153.613M389.54 145.491L374.411 150.7M388.421 142.332L373.386 147.804M387.247 139.193L372.31 144.927M386.019 136.075L371.184 142.069M384.737 132.98L370.009 139.231M383.401 129.906L368.784 136.414M382.011 126.857L367.51 133.619M380.568 123.833L366.188 130.847M379.073 120.834L364.817 128.098M377.526 117.862L363.399 125.373M375.927 114.917L361.933 122.673M374.277 112L360.42 120M372.576 109.113L358.861 117.353M370.825 106.256L357.256 114.734M369.025 103.429L355.606 112.143M367.175 100.635L353.911 109.582M365.277 97.8733L352.171 107.051M363.331 95.1453L350.387 104.55M361.338 92.4514L348.56 102.08M359.298 89.793L346.69 99.6436M357.212 87.1704L344.778 97.2395M355.081 84.5847L342.824 94.8693M352.904 82.0366L340.829 92.5336M350.684 79.5269L338.794 90.2329M348.42 77.0564L336.718 87.9684M346.113 74.6255L334.604 85.74M343.765 72.2356L332.451 83.5493M341.374 69.8867L330.26 81.3962M338.944 67.5801L328.032 79.2817M336.473 65.3162L325.767 77.2065M333.963 63.0957L323.466 75.1711M331.415 60.9194L321.131 73.1761M328.829 58.7881L318.76 71.2224M326.207 56.7019L316.356 69.3101M323.548 54.6619L313.919 67.44M320.855 52.6687L311.45 65.613M318.127 50.7229L308.949 63.8293M315.365 48.8247L306.418 62.0893M312.571 46.9753L303.856 60.3941M309.745 45.1748L301.266 58.7436M306.887 43.4238L298.647 57.1385M304 41.7231L296 55.5796M301.083 40.073L293.327 54.0669M298.139 38.4741L290.627 52.6013M295.166 36.9268L287.902 51.1829M292.167 35.4316L285.153 49.8123M289.143 33.989L282.381 48.4899M286.093 32.5994L279.586 47.2161M283.02 31.2632L276.769 45.9913M279.924 29.9807L273.931 44.8157M276.807 28.7524L271.073 43.6897M273.668 27.5791L268.196 42.6142M270.509 26.4604L265.3 41.5887M267.331 25.3972L262.387 40.6141M264.135 24.3894L259.457 39.6903M260.922 23.4377L256.512 38.8179M257.693 22.5422L253.552 37.9971M254.449 21.7031L250.578 37.2279M251.191 20.9209L247.591 36.5108M247.919 20.1956L244.592 35.8459M244.635 19.5276L241.582 35.2336M241.34 18.917L238.562 34.6739M238.035 18.3638L235.532 34.1668M234.721 17.8687L232.494 33.7129M231.399 17.4312L229.449 33.3119M228.069 17.0518L226.397 32.9641M224.734 16.7307L223.339 32.6698M221.393 16.4678L220.277 32.4288M218.048 16.2632L217.211 32.2413M214.701 16.1169L214.142 32.1072M211.351 16.0293L211.072 32.0269" stroke-linejoin="round" class="ob-instrument-tick-mark-secondary-color-stroke"/>
</g>
</svg>