<svg width="416" height="416" viewBox="0 0 416 416" fill="none" xmlns="http://www.w3.org/2000/svg">
<g id="Degree=2°, Tick size=Secondary">
<path id="Tickmarks" d="M208 16V32M201.299 16.1169L201.858 32.1072M194.607 16.4678L195.723 32.4288M187.931 17.0518L189.603 32.9641M181.279 17.8687L183.506 33.7129M174.66 18.917L177.438 34.6739M168.081 20.1956L171.408 35.8459M161.551 21.7031L165.422 37.2279M155.078 23.4377L159.488 38.8179M148.669 25.3972L153.613 40.6141M142.332 27.5791L147.804 42.6142M136.076 29.9807L142.069 44.8157M129.907 32.5994L136.414 47.2161M123.833 35.4316L130.847 49.8123M117.861 38.4741L125.373 52.6013M112 41.7231L120 55.5796M106.255 45.1748L114.734 58.7436M100.635 48.8247L109.582 62.0893M95.1453 52.6687L104.55 65.613M89.793 56.7019L99.6436 69.3101M84.5847 60.9194L94.8693 73.1761M79.5269 65.3162L90.2329 77.2065M74.6256 69.8867L85.7401 81.3962M69.8867 74.6255L81.3962 85.74M65.3162 79.5269L77.2065 90.2329M60.9194 84.5847L73.1761 94.8693M56.7019 89.793L69.3101 99.6436M52.6687 95.1453L65.613 104.55M48.8248 100.635L62.0894 109.582M45.1748 106.256L58.7436 114.734M41.7231 112L55.5796 120M38.4741 117.862L52.6013 125.373M35.4315 123.833L49.8122 130.847M32.5992 129.906L47.216 136.414M29.9807 136.075L44.8157 142.069M27.579 142.332L42.6141 147.804M25.3972 148.669L40.6141 153.613M23.4377 155.078L38.8179 159.488M21.7032 161.551L37.228 165.422M20.1957 168.081L35.846 171.408M18.9169 174.66L34.6738 177.438M17.8685 181.279L33.7128 183.506M17.0518 187.931L32.9641 189.603M16.4677 194.607L32.4287 195.723M16.1169 201.299L32.1072 201.858M16 208H32M16.1169 214.701L32.1072 214.142M16.4677 221.393L32.4287 220.277M17.0518 228.069L32.9641 226.397M17.8685 234.721L33.7128 232.494M18.9169 241.34L34.6738 238.562M20.1957 247.919L35.846 244.592M21.7032 254.449L37.228 250.578M23.4377 260.922L38.8179 256.512M25.3972 267.331L40.6141 262.387M27.579 273.668L42.6141 268.196M29.9807 279.925L44.8157 273.931M32.5992 286.094L47.216 279.586M35.4315 292.167L49.8122 285.153M38.4741 298.139L52.6013 290.627M41.7231 304L55.5796 296M45.1748 309.745L58.7436 301.266M48.8248 315.365L62.0894 306.418M52.6687 320.855L65.613 311.45M56.7019 326.207L69.3101 316.356M60.9194 331.415L73.1761 321.131M65.3162 336.473L77.2065 325.767M69.8867 341.375L81.3962 330.26M74.6256 346.113L85.7401 334.604M79.5269 350.684L90.2329 338.794M84.5847 355.081L94.8693 342.824M89.793 359.298L99.6436 346.69M95.1453 363.331L104.55 350.387M100.635 367.175L109.582 353.911M106.255 370.825L114.734 357.256M112 374.277L120 360.42M117.861 377.526L125.373 363.399M123.833 380.568L130.847 366.188M129.907 383.401L136.414 368.784M136.076 386.019L142.069 371.184M142.332 388.421L147.804 373.386M148.669 390.603L153.613 375.386M155.078 392.562L159.488 377.182M161.551 394.297L165.422 378.772M168.081 395.804L171.408 380.154M174.66 397.083L177.438 381.326M181.279 398.131L183.506 382.287M187.931 398.948L189.603 383.036M194.607 399.532L195.723 383.571M201.299 399.883L201.858 383.893M208 400V384M214.701 399.883L214.142 383.893M221.393 399.532L220.277 383.571M228.069 398.948L226.397 383.036M234.721 398.131L232.494 382.287M241.34 397.083L238.562 381.326M247.919 395.804L244.592 380.154M254.449 394.297L250.578 378.772M260.922 392.562L256.512 377.182M267.331 390.603L262.387 375.386M273.668 388.421L268.196 373.386M279.924 386.019L273.931 371.184M286.093 383.401L279.586 368.784M292.167 380.568L285.153 366.188M298.139 377.526L290.627 363.399M304 374.277L296 360.42M309.745 370.825L301.266 357.256M315.365 367.175L306.418 353.911M320.855 363.331L311.45 350.387M326.207 359.298L316.356 346.69M331.415 355.081L321.131 342.824M336.473 350.684L325.767 338.794M341.374 346.113L330.26 334.604M346.113 341.375L334.604 330.26M350.684 336.473L338.794 325.767M355.081 331.415L342.824 321.131M359.298 326.207L346.69 316.356M363.331 320.855L350.387 311.45M367.175 315.365L353.911 306.418M370.825 309.745L357.256 301.266M374.277 304L360.42 296M377.526 298.139L363.399 290.627M380.568 292.167L366.188 285.153M383.401 286.094L368.784 279.586M386.019 279.925L371.184 273.931M388.421 273.668L373.386 268.196M390.603 267.331L375.386 262.387M392.562 260.922L377.182 256.512M394.297 254.449L378.772 250.578M395.804 247.919L380.154 244.592M397.083 241.34L381.326 238.562M398.131 234.721L382.287 232.494M398.948 228.069L383.036 226.397M399.532 221.393L383.571 220.277M399.883 214.701L383.893 214.142M400 208H384M399.883 201.299L383.893 201.858M399.532 194.607L383.571 195.723M398.948 187.931L383.036 189.603M398.131 181.279L382.287 183.506M397.083 174.66L381.326 177.438M395.804 168.081L380.154 171.408M394.297 161.551L378.772 165.422M392.562 155.078L377.182 159.488M390.603 148.669L375.386 153.613M388.421 142.332L373.386 147.804M386.019 136.075L371.184 142.069M383.401 129.906L368.784 136.414M380.568 123.833L366.188 130.847M377.526 117.862L363.399 125.373M374.277 112L360.42 120M370.825 106.256L357.256 114.734M367.175 100.635L353.911 109.582M363.331 95.1453L350.387 104.55M359.298 89.793L346.69 99.6436M355.081 84.5847L342.824 94.8693M350.684 79.5269L338.794 90.2329M346.113 74.6255L334.604 85.74M341.374 69.8867L330.26 81.3962M336.473 65.3162L325.767 77.2065M331.415 60.9194L321.131 73.1761M326.207 56.7019L316.356 69.3101M320.855 52.6687L311.45 65.613M315.365 48.8247L306.418 62.0893M309.745 45.1748L301.266 58.7436M304 41.7231L296 55.5796M298.139 38.4741L290.627 52.6013M292.167 35.4316L285.153 49.8123M286.093 32.5994L279.586 47.2161M279.924 29.9807L273.931 44.8157M273.668 27.5791L268.196 42.6142M267.331 25.3972L262.387 40.6141M260.922 23.4377L256.512 38.8179M254.449 21.7031L250.578 37.2279M247.919 20.1956L244.592 35.8459M241.34 18.917L238.562 34.6739M234.721 17.8687L232.494 33.7129M228.069 17.0518L226.397 32.9641M221.393 16.4678L220.277 32.4288M214.701 16.1169L214.142 32.1072" stroke-linejoin="round" class="ob-instrument-tick-mark-secondary-color-stroke"/>
</g>
</svg>