<svg width="416" height="416" viewBox="0 0 416 416" fill="none" xmlns="http://www.w3.org/2000/svg">
<g id="Degree=10°, Tick size=Secondary">
<path id="Tickmarks" d="M208 16V32M174.66 18.917L177.438 34.6739M142.332 27.5791L147.804 42.6142M112 41.7231L120 55.5796M84.5848 60.9194L94.8694 73.1761M60.9195 84.5847L73.1762 94.8693M41.7231 112L55.5796 120M27.579 142.332L42.6141 147.804M18.9169 174.66L34.6739 177.438M16 208H32M18.9169 241.34L34.6739 238.562M27.579 273.668L42.6141 268.196M41.7231 304L55.5796 296M60.9195 331.415L73.1762 321.131M84.5848 355.081L94.8694 342.824M112 374.277L120 360.42M142.332 388.421L147.804 373.386M174.66 397.083L177.438 381.326M208 400V384M241.34 397.083L238.562 381.326M273.668 388.421L268.196 373.386M304 374.277L296 360.42M331.415 355.081L321.131 342.824M355.081 331.415L342.824 321.131M374.277 304L360.42 296M388.421 273.668L373.386 268.196M397.083 241.34L381.326 238.562M400 208H384M397.083 174.66L381.326 177.438M388.421 142.332L373.386 147.804M374.277 112L360.42 120M355.081 84.5847L342.824 94.8693M331.415 60.9194L321.131 73.1761M304 41.7231L296 55.5796M273.668 27.5791L268.196 42.6142M241.34 18.917L238.562 34.6739" stroke-linejoin="round" class="ob-instrument-tick-mark-secondary-color-stroke"/>
</g>
</svg>