<svg width="416" height="416" viewBox="0 0 416 416" fill="none" xmlns="http://www.w3.org/2000/svg">
<g id="Degree=9°, Tick size=Secondary">
<path id="Tickmarks" d="M208 16V32M177.965 18.3638L180.468 34.1668M148.669 25.3972L153.613 40.6141M120.834 36.9268L128.098 51.1829M95.1452 52.6687L104.55 65.613M72.2355 72.2356L83.5492 83.5493M52.6687 95.1453L65.613 104.55M36.9267 120.834L51.1828 128.098M25.3972 148.669L40.6141 153.613M18.3638 177.965L34.1669 180.468M16 208H32M18.3638 238.035L34.1669 235.532M25.3972 267.331L40.6141 262.387M36.9267 295.166L51.1828 287.902M52.6687 320.855L65.613 311.45M72.2355 343.764L83.5492 332.451M95.1452 363.331L104.55 350.387M120.834 379.073L128.098 364.817M148.669 390.603L153.613 375.386M177.965 397.636L180.468 381.833M208 400V384M238.035 397.636L235.532 381.833M267.331 390.603L262.387 375.386M295.166 379.073L287.902 364.817M320.855 363.331L311.45 350.387M343.764 343.764L332.451 332.451M363.331 320.855L350.387 311.45M379.073 295.166L364.817 287.902M390.603 267.331L375.386 262.387M397.636 238.035L381.833 235.532M400 208H384M397.636 177.965L381.833 180.468M390.603 148.669L375.386 153.613M379.073 120.834L364.817 128.098M363.331 95.1453L350.387 104.55M343.764 72.2356L332.451 83.5493M320.855 52.6687L311.45 65.613M295.166 36.9268L287.902 51.1829M267.331 25.3972L262.387 40.6141M238.035 18.3638L235.532 34.1668" stroke-linejoin="round" class="ob-instrument-tick-mark-secondary-color-stroke"/>
</g>
</svg>