<svg width="416" height="416" viewBox="0 0 416 416" fill="none" xmlns="http://www.w3.org/2000/svg">
<g id="Degree=2°, Tick size=Tertiary">
<path id="Tickmarks" d="M208 24V32M201.578 24.1121L201.858 32.1072M195.165 24.4482L195.723 32.4288M188.767 25.0079L189.603 32.9641M182.392 25.7906L183.505 33.7128M176.049 26.7954L177.438 34.6739M169.744 28.0209L171.408 35.8461M163.486 29.4656L165.422 37.2279M157.283 31.1278L159.488 38.8179M151.141 33.0056L153.613 40.6141M145.068 35.0966L147.804 42.6141M139.072 37.3982L142.069 44.8157M133.16 39.9076L136.414 47.216M127.34 42.6219L130.847 49.8123M121.617 45.5376L125.373 52.6012M116 48.6514L120 55.5796M110.495 51.9591L114.734 58.7435M105.109 55.457L109.582 62.0893M99.8475 59.1409L104.55 65.613M94.7183 63.006L99.6436 69.3101M89.7271 67.0479L94.8694 73.1762M84.88 71.2614L90.233 77.2065M80.1829 75.6415L85.7401 81.3962M75.6415 80.1829L81.3962 85.7401M71.2614 84.88L77.2065 90.233M67.0479 89.7271L73.1762 94.8694M63.006 94.7183L69.3101 99.6436M59.1409 99.8475L65.613 104.55M55.457 105.109L62.0893 109.582M51.9591 110.495L58.7435 114.734M48.6514 116L55.5796 120M45.5376 121.617L52.6012 125.373M42.6219 127.34L49.8123 130.847M39.9076 133.16L47.216 136.414M37.3982 139.072L44.8157 142.069M35.0966 145.068L42.6141 147.804M33.0056 151.141L40.6141 153.613M31.1278 157.283L38.8179 159.488M29.4656 163.486L37.2279 165.422M28.0209 169.744L35.8461 171.408M26.7954 176.049L34.6739 177.438M25.7906 182.392L33.7128 183.505M25.0079 188.767L32.9641 189.603M24.4482 195.165L32.4288 195.723M24.1121 201.578L32.1072 201.858M24 208H32M24.1121 214.422L32.1072 214.142M24.4482 220.835L32.4288 220.277M25.0079 227.233L32.9641 226.397M25.7906 233.608L33.7128 232.495M26.7954 239.951L34.6739 238.562M28.0209 246.256L35.8461 244.592M29.4656 252.514L37.2279 250.578M31.1278 258.717L38.8179 256.512M33.0056 264.859L40.6141 262.387M35.0966 270.932L42.6141 268.195M37.3982 276.928L44.8157 273.931M39.9076 282.84L47.216 279.586M42.6219 288.66L49.8123 285.153M45.5376 294.383L52.6012 290.627M48.6514 300L55.5796 296M51.9591 305.505L58.7435 301.266M55.457 310.891L62.0893 306.418M59.1409 316.152L65.613 311.45M63.006 321.282L69.3101 316.356M67.0479 326.273L73.1762 321.131M71.2614 331.12L77.2065 325.767M75.6415 335.817L81.3962 330.26M80.1829 340.359L85.7401 334.604M84.88 344.739L90.233 338.793M89.7271 348.952L94.8694 342.824M94.7183 352.994L99.6436 346.69M99.8475 356.859L104.55 350.387M105.109 360.543L109.582 353.911M110.495 364.041L114.734 357.257M116 367.349L120 360.42M121.617 370.462L125.373 363.399M127.34 373.378L130.847 366.188M133.16 376.092L136.414 368.784M139.072 378.602L142.069 371.184M145.068 380.903L147.804 373.386M151.141 382.994L153.613 375.386M157.283 384.872L159.488 377.182M163.486 386.534L165.422 378.772M169.744 387.979L171.408 380.154M176.049 389.205L177.438 381.326M182.392 390.209L183.505 382.287M188.767 390.992L189.603 383.036M195.165 391.552L195.723 383.571M201.578 391.888L201.858 383.893M208 392V384M214.422 391.888L214.142 383.893M220.835 391.552L220.277 383.571M227.233 390.992L226.397 383.036M233.608 390.209L232.495 382.287M239.951 389.205L238.562 381.326M246.256 387.979L244.592 380.154M252.514 386.534L250.578 378.772M258.717 384.872L256.512 377.182M264.859 382.994L262.387 375.386M270.932 380.903L268.196 373.386M276.928 378.602L273.931 371.184M282.84 376.092L279.586 368.784M288.66 373.378L285.153 366.188M294.383 370.462L290.627 363.399M300 367.349L296 360.42M305.505 364.041L301.266 357.257M310.891 360.543L306.418 353.911M316.152 356.859L311.45 350.387M321.282 352.994L316.356 346.69M326.273 348.952L321.131 342.824M331.12 344.739L325.767 338.793M335.817 340.359L330.26 334.604M340.359 335.817L334.604 330.26M344.739 331.12L338.793 325.767M348.952 326.273L342.824 321.131M352.994 321.282L346.69 316.356M356.859 316.152L350.387 311.45M360.543 310.891L353.911 306.418M364.041 305.505L357.256 301.266M367.349 300L360.421 296M370.462 294.383L363.399 290.627M373.378 288.66L366.188 285.153M376.092 282.84L368.784 279.586M378.602 276.928L371.184 273.931M380.903 270.932L373.386 268.195M382.994 264.859L375.386 262.387M384.872 258.717L377.182 256.512M386.534 252.514L378.772 250.578M387.979 246.256L380.154 244.592M389.205 239.951L381.326 238.562M390.209 233.608L382.287 232.495M390.992 227.233L383.036 226.397M391.552 220.835L383.571 220.277M391.888 214.422L383.893 214.142M392 208H384M391.888 201.578L383.893 201.858M391.552 195.165L383.571 195.723M390.992 188.767L383.036 189.603M390.209 182.392L382.287 183.505M389.205 176.049L381.326 177.438M387.979 169.744L380.154 171.408M386.534 163.486L378.772 165.422M384.872 157.283L377.182 159.488M382.994 151.141L375.386 153.613M380.903 145.068L373.386 147.804M378.602 139.072L371.184 142.069M376.092 133.16L368.784 136.414M373.378 127.34L366.188 130.847M370.462 121.617L363.399 125.373M367.349 116L360.421 120M364.041 110.495L357.256 114.734M360.543 105.109L353.911 109.582M356.859 99.8475L350.387 104.55M352.994 94.7183L346.69 99.6436M348.952 89.7271L342.824 94.8694M344.739 84.88L338.793 90.233M340.359 80.1829L334.604 85.7401M335.817 75.6415L330.26 81.3962M331.12 71.2614L325.767 77.2065M326.273 67.0479L321.131 73.1762M321.282 63.006L316.356 69.3101M316.152 59.1409L311.45 65.613M310.891 55.457L306.418 62.0893M305.505 51.9591L301.266 58.7435M300 48.6514L296 55.5796M294.383 45.5376L290.627 52.6012M288.66 42.6219L285.153 49.8123M282.84 39.9076L279.586 47.216M276.928 37.3982L273.931 44.8157M270.932 35.0966L268.196 42.6141M264.859 33.0056L262.387 40.6141M258.717 31.1278L256.512 38.8179M252.514 29.4656L250.578 37.2279M246.256 28.0209L244.592 35.8461M239.951 26.7954L238.562 34.6739M233.608 25.7906L232.495 33.7128M227.233 25.0079L226.397 32.9641M220.835 24.4482L220.277 32.4288M214.422 24.1121L214.142 32.1072" stroke-linejoin="round" class="ob-instrument-tick-mark-secondary-color-stroke"/>
</g>
</svg>