<svg width="512" height="512" viewBox="0 0 512 512" fill="none" xmlns="http://www.w3.org/2000/svg">
<g id="Size=Large, Type=Positive / Negative, Condensed=False">
<path id="Negative  (Stroke)" fill-rule="evenodd" clip-rule="evenodd" d="M63.8331 335.598C53.3801 310.362 48 283.315 48 256H80C80 279.113 84.5524 301.999 93.3972 323.352C102.242 344.706 115.206 364.108 131.549 380.451C147.892 396.794 167.294 409.758 188.648 418.603C210.001 427.448 232.887 432 256 432V464C228.685 464 201.638 458.62 176.402 448.167C151.166 437.714 128.236 422.393 108.922 403.078C89.6072 383.764 74.286 360.834 63.8331 335.598Z" fill="#E6E6E6" class="ob-instrument-track-color-fill"/>
<path id="Positive (Stroke)" fill-rule="evenodd" clip-rule="evenodd" d="M176.402 63.833C214.409 48.09 256.231 43.9709 296.579 51.9966C336.927 60.0224 373.989 79.8325 403.078 108.922C432.168 138.011 451.978 175.073 460.003 215.421C468.029 255.769 463.91 297.591 448.167 335.598C432.424 373.605 405.764 406.09 371.559 428.946C337.353 451.801 297.138 464 256 464L256 432C290.809 432 324.837 421.678 353.78 402.339C382.723 383 405.282 355.512 418.603 323.352C431.924 291.193 435.409 255.805 428.618 221.664C421.827 187.523 405.065 156.163 380.451 131.549C355.837 106.935 324.477 90.1728 290.336 83.3818C256.195 76.5908 220.808 80.0761 188.648 93.3972C156.488 106.718 129 129.277 109.661 158.22C90.3222 187.163 80 221.19 80 256H48C48 214.861 60.199 174.647 83.0543 140.441C105.91 106.236 138.395 79.576 176.402 63.833Z" fill="white" class="ob-instrument-frame-color-fill"/>
<circle id="inner-border" cx="256" cy="256" r="176.5" stroke="#E5E5E5" class="ob-instrument-tick-mark-tertiary-color-stroke"/>
</g>
</svg>