<svg width="512" height="512" viewBox="0 0 512 512" fill="none" xmlns="http://www.w3.org/2000/svg">
<g id="Size=Large, Type=PORT STBD, Condensed=True">
<g id="frame">
<path fill-rule="evenodd" clip-rule="evenodd" d="M256 432C353.202 432 432 353.202 432 256C432 158.798 353.202 80 256 80C158.798 80 80 158.798 80 256C80 353.202 158.798 432 256 432ZM256 448C362.039 448 448 362.039 448 256C448 149.961 362.039 64 256 64C149.961 64 64 149.961 64 256C64 362.039 149.961 448 256 448Z" fill="white" class="ob-instrument-frame-color-fill"/>
<path d="M256 432.5C353.478 432.5 432.5 353.478 432.5 256C432.5 158.522 353.478 79.5 256 79.5C158.522 79.5 79.5 158.522 79.5 256C79.5 353.478 158.522 432.5 256 432.5ZM447.5 256C447.5 361.763 361.763 447.5 256 447.5C150.237 447.5 64.5 361.763 64.5 256C64.5 150.237 150.237 64.5 256 64.5C361.763 64.5 447.5 150.237 447.5 256Z" stroke="black" stroke-opacity="0.1"/>
</g>
<path id="PORT" d="M256 446C205.609 446 157.282 425.982 121.65 390.35C86.0178 354.718 66 306.391 66 256C66 205.609 86.0178 157.282 121.65 121.65C157.282 86.0178 205.609 66 256 66" stroke="#FF004C" stroke-width="4" class="ob-instrument-port-color-stroke"/>
<path id="STBD" d="M256 66C306.391 66 354.718 86.0178 390.35 121.65C425.982 157.282 446 205.609 446 256C446 306.391 425.982 354.718 390.35 390.35C354.718 425.982 306.391 446 256 446" stroke="#00B373" stroke-width="4" class="ob-instrument-starboard-color-stroke"/>
</g>
</svg>