<svg width="64" height="64" viewBox="0 0 64 64" fill="none" xmlns="http://www.w3.org/2000/svg">
<g id="Size=Small, Type=Positive / Negative, Condensed=False">
<g id="Group 8">
<path id="Negative " d="M32 63.5C27.8634 63.5 23.7672 62.6852 19.9455 61.1022C16.1237 59.5192 12.6512 57.1989 9.72613 54.2738C6.80109 51.3488 4.48082 47.8763 2.89779 44.0545C1.31477 40.2328 0.5 36.1366 0.5 32" stroke="#333333" class="ob-instrument-tick-mark-primary-color-stroke"/>
<path id="Positive" d="M0.5 32C0.5 25.7699 2.34744 19.6797 5.80871 14.4995C9.26997 9.31938 14.1896 5.28195 19.9455 2.89779C25.7013 0.513633 32.0349 -0.110171 38.1453 1.10526C44.2557 2.3207 49.8685 5.32078 54.2739 9.72614C58.6792 14.1315 61.6793 19.7443 62.8947 25.8547C64.1102 31.9651 63.4863 38.2987 61.1022 44.0545C58.718 49.8104 54.6806 54.73 49.5004 58.1913C44.3203 61.6525 38.2301 63.5 32 63.5" stroke="#999999" class="ob-instrument-tick-mark-secondary-color-stroke"/>
</g>
</g>
</svg>