<svg width="416" height="416" viewBox="0 0 416 416" fill="none" xmlns="http://www.w3.org/2000/svg">
<g id="Degree=1°, Tick size=Tertiary">
<path id="Tickmarks" d="M208 24V32M208 384V392M24 208H32M384 208H392M204.789 24.0281L204.928 32.0269M211.072 383.973L211.211 391.972M24.028 211.211L32.0267 211.072M383.973 204.928L391.972 204.789M201.578 24.1121L201.858 32.1072M214.142 383.893L214.422 391.888M24.1121 214.422L32.1072 214.142M383.893 201.858L391.888 201.578M198.37 24.2522L198.789 32.2412M217.211 383.759L217.63 391.748M24.2521 217.63L32.2411 217.211M383.759 198.789L391.748 198.37M195.165 24.4482L195.723 32.4288M220.277 383.571L220.835 391.552M24.4482 220.835L32.4288 220.277M383.571 195.723L391.552 195.165M191.963 24.7002L192.661 32.6698M223.339 383.33L224.037 391.3M24.7002 224.037L32.6698 223.339M383.33 192.661L391.3 191.963M188.767 25.0079L189.603 32.9641M226.397 383.036L227.233 390.992M25.0081 227.233L32.9642 226.397M383.036 189.603L390.992 188.767M185.576 25.3716L186.551 33.312M229.449 382.688L230.424 390.629M25.3715 230.424L33.3118 229.449M382.688 186.551L390.628 185.576M182.392 25.7906L183.506 33.7128M232.495 382.287L233.608 390.209M25.7908 233.608L33.7129 232.495M382.287 183.506L390.209 182.392M179.216 26.2654L180.468 34.1669M235.532 381.833L236.784 389.735M26.2654 236.784L34.1669 235.532M381.833 180.468L389.735 179.216M176.049 26.7954L177.438 34.6739M238.562 381.326L239.951 389.205M26.7955 239.951L34.674 238.562M381.326 177.438L389.205 176.049M172.891 27.3806L174.418 35.2336M241.583 380.766L243.109 388.62M27.3807 243.109L35.2338 241.582M380.766 174.418L388.62 172.891M169.744 28.0209L171.408 35.8461M244.593 380.154L246.256 387.979M28.021 246.256L35.8462 244.592M380.154 171.408L387.979 169.744M166.609 28.7159L168.409 36.5109M247.592 379.489L249.391 387.284M28.7161 249.391L36.511 247.591M379.489 168.409L387.284 166.609M163.487 29.4656L165.422 37.2279M250.578 378.772L252.514 386.534M29.4658 252.514L37.2282 250.578M378.772 165.422L386.535 163.486M160.377 30.2697L162.448 37.9971M253.552 378.003L255.623 385.73M30.2695 255.623L37.9969 253.552M378.003 162.448L385.73 160.377M157.283 31.1278L159.488 38.8179M256.512 377.182L258.717 384.872M31.1278 258.717L38.8179 256.512M377.182 159.488L384.872 157.283M154.203 32.0399L156.542 39.6904M259.457 376.31L261.796 383.96M32.0398 261.796L39.6902 259.457M376.31 156.543L383.96 154.204M151.141 33.0056L153.613 40.6141M262.387 375.386L264.859 382.994M33.0055 264.859L40.6139 262.387M375.386 153.613L382.994 151.141M148.095 34.0245L150.7 41.5887M265.3 374.411L267.904 381.975M34.0245 267.905L41.5887 265.3M374.411 150.7L381.975 148.095M145.068 35.0964L147.804 42.614M268.195 373.386L270.932 380.903M35.0966 270.932L42.6141 268.195M373.386 147.804L380.903 145.068M142.06 36.2212L144.927 43.6898M271.072 372.31L273.939 379.779M36.2208 273.94L43.6895 271.073M372.31 144.927L379.778 142.06M139.072 37.3982L142.069 44.8157M273.93 371.184L276.927 378.602M37.3978 276.928L44.8153 273.931M371.184 142.069L378.602 139.072M136.105 38.6272L139.231 45.9912M276.768 370.009L279.894 377.373M38.6268 279.895L45.9909 276.769M370.009 139.231L377.373 136.106M133.16 39.9077L136.414 47.2161M279.585 368.784L282.839 376.093M39.9073 282.84L47.2157 279.586M368.784 136.415L376.092 133.161M130.238 41.2394L133.619 48.4898M282.38 367.51L285.761 374.761M41.239 285.762L48.4895 282.381M367.51 133.619L374.76 130.238M124.465 44.0547L128.097 51.1827M287.902 364.817L291.534 371.945M44.0544 291.534L51.1825 287.902M364.817 128.098L371.945 124.466M127.339 42.6219L130.846 49.8123M285.153 366.188L288.66 373.378M42.6216 288.66L49.8119 285.153M366.187 130.847L373.378 127.34M121.617 45.5376L125.373 52.6012M290.627 363.399L294.382 370.462M45.5374 294.383L52.6009 290.627M363.398 125.373L370.462 121.617M118.795 47.0701L122.673 54.067M293.326 361.933L297.205 368.93M47.0696 297.205L54.0665 293.327M361.933 122.674L368.93 118.795M116 48.6514L120 55.5796M296 360.421L300 367.349M48.651 300L55.5792 296M360.42 120L367.348 116M113.233 50.2812L117.353 57.1386M298.646 358.861L302.767 365.719M50.2809 302.767L57.1382 298.647M358.861 117.353L365.718 113.233M110.495 51.9591L114.734 58.7435M301.266 357.256L305.505 364.041M51.9589 305.505L58.7432 301.266M357.256 114.734L364.041 110.495M107.786 53.6846L112.143 60.3939M303.856 355.606L308.213 362.315M53.6843 308.214L60.3937 303.857M355.606 112.144L362.315 107.786M105.108 55.4572L109.582 62.0895M306.418 353.911L310.891 360.543M55.4568 310.892L62.0891 306.418M353.91 109.582L360.543 105.109M102.462 57.276L107.05 63.8292M308.949 352.171L313.538 358.724M57.2756 313.538L63.8288 308.949M352.17 107.051L358.724 102.462M99.847 59.1409L104.549 65.613M311.45 350.387L316.152 356.859M59.1404 316.152L65.6125 311.45M350.387 104.55L356.859 99.8475M97.2656 61.051L102.08 67.4401M313.919 348.56L318.734 354.949M61.0507 318.734L67.4397 313.919M348.559 102.081L354.948 97.266M92.2046 65.0051L97.2392 71.2223M318.76 344.778L323.794 350.995M65.0046 323.795L71.2218 318.76M344.777 97.2396L350.994 92.2051M94.7179 63.006L99.6432 69.3101M316.356 346.69L321.281 352.994M63.0056 321.282L69.3097 316.356M346.689 99.6436L352.994 94.7183M89.7267 67.0477L94.869 73.1761M321.13 342.824L326.273 348.952M67.0475 326.273L73.1758 321.131M342.823 94.8693L348.952 89.727M87.2848 69.1334L92.5333 75.1711M323.466 340.829L328.714 346.867M69.1331 328.715L75.1707 323.466M340.829 92.5336L346.866 87.2851M84.8795 71.2614L90.2326 77.2065M325.767 338.793L331.12 344.739M71.2609 331.12L77.206 325.767M338.793 90.2329L344.738 84.8799M82.512 73.4309L87.9679 79.2817M328.031 336.718L333.487 342.569M73.4305 333.488L79.2814 328.032M336.718 87.9683L342.569 82.5123M77.8918 77.8922L83.5487 83.5491M332.45 332.451L338.107 338.108M77.8918 338.108L83.5487 332.451M332.45 83.5491L338.107 77.8922M80.1825 75.6415L85.7398 81.3962M330.259 334.604L335.817 340.358M75.6411 335.817L81.3958 330.26M334.603 85.7401L340.358 80.1828M75.641 80.1827L81.3957 85.74M334.603 330.26L340.358 335.817M80.1824 340.358L85.7396 334.604M330.259 81.3961L335.817 75.6414M73.4304 82.5122L79.2812 87.9682M336.718 328.032L342.569 333.488M82.5118 342.569L87.9678 336.718M328.031 79.2816L333.487 73.4308M71.2609 84.8799L77.206 90.2329M338.793 325.767L344.738 331.12M84.8795 344.739L90.2326 338.793M325.767 77.2064L331.12 71.2613M69.1329 87.285L75.1706 92.5335M340.828 323.466L346.866 328.715M87.2847 346.866L92.5331 340.829M323.466 75.171L328.714 69.1333M65.0049 92.205L71.222 97.2395M344.777 318.76L350.995 323.795M92.2048 350.995L97.2394 344.778M318.76 71.2223L323.795 65.0051M67.0476 89.7271L73.176 94.8694M342.824 321.13L348.952 326.273M89.7268 348.952L94.8691 342.824M321.13 73.1761L326.273 67.0478M63.0057 94.7183L69.3098 99.6436M346.69 316.356L352.994 321.282M94.718 352.994L99.6433 346.69M316.356 69.3102L321.281 63.0061M61.0508 97.266L67.4399 102.081M348.56 313.919L354.949 318.734M97.2657 354.949L102.08 348.56M313.919 67.4402L318.734 61.0511M59.1405 99.8475L65.6126 104.55M350.387 311.45L356.859 316.152M99.8472 356.859L104.549 350.387M311.45 65.613L316.152 59.1409M57.2755 102.462L63.8287 107.051M352.17 308.949L358.723 313.538M102.461 358.724L107.05 352.171M308.949 63.8292L313.538 57.276M55.4565 105.108L62.0888 109.582M353.91 306.418L360.542 310.891M105.108 360.543L109.582 353.911M306.417 62.0894L310.891 55.4571M53.6841 107.786L60.3934 112.143M355.605 303.856L362.315 308.214M107.786 362.315L112.143 355.606M303.856 60.394L308.213 53.6847M51.9586 110.495L58.743 114.734M357.256 301.266L364.04 305.505M110.494 364.041L114.734 357.256M301.265 58.7435L305.505 51.9591M50.2806 113.233L57.138 117.353M358.861 298.647L365.718 302.767M113.232 365.719L117.353 358.861M298.646 57.1385L302.766 50.2812M48.6509 116L55.5791 120M360.42 296L367.348 300M116 367.349L120 360.42M296 55.5795L300 48.6513M47.0696 118.795L54.0665 122.673M361.933 293.326L368.93 297.205M118.795 368.93L122.673 361.933M293.326 54.0669L297.205 47.0699M45.5372 121.617L52.6008 125.373M363.398 290.627L370.462 294.383M121.617 370.462L125.373 363.399M290.627 52.6011L294.382 45.5375M44.0544 124.466L51.1825 128.098M364.817 287.902L371.945 291.534M124.465 371.945L128.097 364.817M287.902 51.1826L291.534 44.0546M42.6215 127.339L49.8118 130.846M366.187 285.153L373.378 288.66M127.339 373.378L130.846 366.187M285.153 49.812L288.66 42.6217M41.2389 130.238L48.4894 133.619M367.51 282.381L374.76 285.762M130.238 374.76L133.619 367.51M282.38 48.4897L285.761 41.2393M39.9072 133.16L47.2156 136.414M368.784 279.586L376.092 282.839M133.16 376.092L136.414 368.784M279.585 47.2158L282.839 39.9075M38.6267 136.105L45.9907 139.231M370.008 276.769L377.373 279.894M136.105 377.373L139.231 370.009M276.768 45.9911L279.894 38.6271M37.3977 139.072L44.8152 142.069M371.184 273.931L378.601 276.928M139.072 378.602L142.069 371.184M273.93 44.8157L276.927 37.3982M36.2207 142.06L43.6893 144.927M372.31 271.073L379.778 273.94M142.06 379.779L144.927 372.31M271.072 43.6898L273.939 36.2212M35.0962 145.068L42.6137 147.804M373.385 268.195L380.903 270.932M145.068 380.903L147.804 373.386M268.195 42.614L270.931 35.0965M34.0243 148.095L41.5884 150.7M374.411 265.3L381.975 267.904M148.095 381.975L150.7 374.411M265.3 41.5886L267.904 34.0245M33.0054 151.141L40.6138 153.613M375.386 262.387L382.994 264.859M151.141 382.994L153.613 375.386M262.387 40.614L264.859 33.0056M32.0397 154.204L39.6901 156.543M376.309 259.457L383.96 261.796M154.203 383.96L156.542 376.31M259.457 39.6904L261.796 32.04M31.1276 157.283L38.8177 159.488M377.182 256.512L384.872 258.717M157.282 384.872L159.488 377.182M256.512 38.8179L258.717 31.1278M30.2694 160.377L37.9968 162.448M378.003 253.552L385.73 255.623M160.377 385.73L162.448 378.003M253.552 37.9971L255.622 30.2697M29.4655 163.486L37.2278 165.422M378.772 250.578L386.534 252.514M163.486 386.534L165.422 378.772M250.578 37.2279L252.514 29.4655M28.7157 166.609L36.5107 168.409M379.489 247.591L387.284 249.391M166.609 387.284L168.408 379.489M247.591 36.5109L249.391 28.7159M28.0206 169.744L35.8458 171.408M380.154 244.592L387.979 246.256M169.744 387.979L171.407 380.154M244.592 35.8459L246.256 28.0208M27.3805 172.891L35.2335 174.418M380.766 241.582L388.619 243.109M172.891 388.619L174.417 380.766M241.582 35.2335L243.109 27.3805M26.795 176.049L34.6735 177.438M381.326 238.562L389.204 239.951M176.048 389.205L177.438 381.326M238.562 34.674L239.951 26.7955M26.265 179.216L34.1665 180.468M381.833 235.532L389.734 236.784M179.216 389.735L180.467 381.833M235.532 34.1669L236.784 26.2654M25.7904 182.392L33.7125 183.505M382.287 232.494L390.209 233.608M182.392 390.209L183.505 382.287M232.494 33.7128L233.608 25.7906M25.3712 185.576L33.3116 186.551M382.688 229.449L390.628 230.424M185.576 390.628L186.551 382.688M229.449 33.3118L230.424 25.3714M25.0077 188.767L32.9639 189.603M383.036 226.397L390.992 227.233M188.766 390.992L189.603 383.036M226.397 32.964L227.233 25.0078M24.7001 191.963L32.6696 192.661M383.33 223.339L391.3 224.037M191.963 391.3L192.661 383.33M223.339 32.6698L224.037 24.7002M24.4481 195.165L32.4286 195.723M383.571 220.277L391.552 220.835M195.165 391.552L195.723 383.571M220.277 32.4288L220.835 24.4483M24.2521 198.37L32.2411 198.789M383.759 217.211L391.748 217.63M198.37 391.748L198.789 383.759M217.211 32.2412L217.63 24.2522M24.1119 201.578L32.1071 201.858M383.893 214.142L391.888 214.422M201.578 391.888L201.858 383.893M214.142 32.1072L214.421 24.1121M24.028 204.789L32.0267 204.928M383.973 211.072L391.972 211.211M204.789 391.972L204.928 383.973M211.072 32.0269L211.211 24.0281" stroke="#999999" class="ob-instrument-tick-mark-secondary-color-stroke"/>
</g>
</svg>