<svg width="192" height="64" viewBox="0 0 192 64" fill="none" xmlns="http://www.w3.org/2000/svg">
<g id="Size=Large">
<g id="Large">
<g id="Union">
<mask id="VYYEZTPNNQpath-1-inside-1" fill="white">
<path fill-rule="evenodd" clip-rule="evenodd" d="M64 0H0C0 35.3462 28.6538 64 64 64H192V0H64Z"/>
</mask>
<path fill-rule="evenodd" clip-rule="evenodd" d="M64 0H0C0 35.3462 28.6538 64 64 64H192V0H64Z" fill="#E6E6E6" class="ob-instrument-track-color-fill"/>
<path d="M0 0V-1H-1V0H0ZM192 64V65H193V64H192ZM192 0H193V-1H192V0ZM0 1H64V-1H0V1ZM64 63C29.2061 63 1 34.7939 1 0H-1C-1 35.8985 28.1015 65 64 65V63ZM192 63H64V65H192V63ZM191 0V64H193V0H191ZM64 1H192V-1H64V1Z" fill="#999999" mask="url(#VYYEZTPNNQpath-1-inside-1)" class="ob-instrument-tick-mark-secondary-color-fill"/>
</g>
<path id="Cross" fill-rule="evenodd" clip-rule="evenodd" d="M95.5 64V0H96.5V64H95.5Z" fill="#999999" class="ob-instrument-tick-mark-secondary-color-fill"/>
</g>
</g>
</svg>