<svg width="32" height="256" viewBox="0 0 32 256" fill="none" xmlns="http://www.w3.org/2000/svg">
<g id="Size=Medium, Type=Circular">
<g id="COG">
<mask id="WMFUOILMOCpath-1-outside-1" maskUnits="userSpaceOnUse" x="4.81299" y="38" width="22" height="28" fill="black">
<rect fill="white" x="4.81299" y="38" width="22" height="28"/>
<path fill-rule="evenodd" clip-rule="evenodd" d="M16 59.0717L22.3689 61.4852L16 46.2L9.63122 61.4852L16 59.0717ZM16 41L25.1075 62.858C25.445 63.6678 24.6505 64.4886 23.8301 64.1777L16 61.2105L8.16999 64.1777C7.34964 64.4886 6.55514 63.6678 6.89256 62.858L16 41Z"/>
</mask>
<path fill-rule="evenodd" clip-rule="evenodd" d="M16 59.0717L22.3689 61.4852L16 46.2L9.63122 61.4852L16 59.0717ZM16 41L25.1075 62.858C25.445 63.6678 24.6505 64.4886 23.8301 64.1777L16 61.2105L8.16999 64.1777C7.34964 64.4886 6.55514 63.6678 6.89256 62.858L16 41Z" class="ob-instrument-dynamic-color-fill"/>
<path d="M16 59.0717L16.3544 58.1366L16 58.0023L15.6457 58.1366L16 59.0717ZM22.3689 61.4852L22.0145 62.4203L24.1845 63.2426L23.292 61.1006L22.3689 61.4852ZM16 46.2L16.9231 45.8154L16 43.6L15.077 45.8154L16 46.2ZM9.63122 61.4852L8.70814 61.1006L7.81564 63.2426L9.98558 62.4203L9.63122 61.4852ZM16 41L16.9231 40.6154L16 38.4L15.077 40.6154L16 41ZM25.1075 62.858L26.0306 62.4734L26.0306 62.4734L25.1075 62.858ZM23.8301 64.1777L24.1845 63.2426L24.1845 63.2426L23.8301 64.1777ZM16 61.2105L16.3544 60.2754L16 60.1411L15.6457 60.2754L16 61.2105ZM8.16999 64.1777L8.52435 65.1128L8.52435 65.1128L8.16999 64.1777ZM6.89256 62.858L5.96948 62.4734L5.96948 62.4734L6.89256 62.858ZM15.6457 60.0068L22.0145 62.4203L22.7232 60.5501L16.3544 58.1366L15.6457 60.0068ZM23.292 61.1006L16.9231 45.8154L15.077 46.5846L21.4458 61.8698L23.292 61.1006ZM15.077 45.8154L8.70814 61.1006L10.5543 61.8698L16.9231 46.5846L15.077 45.8154ZM9.98558 62.4203L16.3544 60.0068L15.6457 58.1366L9.27686 60.5501L9.98558 62.4203ZM15.077 41.3846L24.1845 63.2426L26.0306 62.4734L16.9231 40.6154L15.077 41.3846ZM24.1845 63.2426L24.1845 63.2426L23.4757 65.1128C25.1165 65.7346 26.7055 64.093 26.0306 62.4734L24.1845 63.2426ZM24.1845 63.2426L16.3544 60.2754L15.6457 62.1456L23.4757 65.1128L24.1845 63.2426ZM15.6457 60.2754L7.81564 63.2426L8.52435 65.1128L16.3544 62.1456L15.6457 60.2754ZM7.81564 63.2426L7.81563 63.2426L5.96948 62.4734C5.29465 64.093 6.88364 65.7346 8.52435 65.1128L7.81564 63.2426ZM7.81563 63.2426L16.9231 41.3846L15.077 40.6154L5.96948 62.4734L7.81563 63.2426Z" mask="url(#WMFUOILMOCpath-1-outside-1)" class="ob-container-background-color-fill"/>
</g>
</g>
</svg>