<svg width="24" height="33" viewBox="0 0 24 33" fill="none" xmlns="http://www.w3.org/2000/svg">
<g id="Size=Medium, Type=Flat">
<g id="COG">
<mask id="CCEGJDWXEHpath-1-outside-1" maskUnits="userSpaceOnUse" x="1" y="5" width="22" height="28" fill="black">
<rect fill="white" x="1" y="5" width="22" height="28"/>
<path fill-rule="evenodd" clip-rule="evenodd" d="M12 26.0717L18.3689 28.4852L12 13.2L5.63122 28.4852L12 26.0717ZM12 8L21.1075 29.858C21.445 30.6678 20.6505 31.4886 19.8301 31.1777L12 28.2105L4.16999 31.1777C3.34963 31.4886 2.55514 30.6678 2.89256 29.858L12 8Z"/>
</mask>
<path fill-rule="evenodd" clip-rule="evenodd" d="M12 26.0717L18.3689 28.4852L12 13.2L5.63122 28.4852L12 26.0717ZM12 8L21.1075 29.858C21.445 30.6678 20.6505 31.4886 19.8301 31.1777L12 28.2105L4.16999 31.1777C3.34963 31.4886 2.55514 30.6678 2.89256 29.858L12 8Z" class="ob-instrument-dynamic-color-fill"/>
<path d="M12 26.0717L12.3544 25.1366L12 25.0023L11.6457 25.1366L12 26.0717ZM18.3689 28.4852L18.0145 29.4203L20.1845 30.2426L19.292 28.1006L18.3689 28.4852ZM12 13.2L12.9231 12.8154L12 10.6L11.077 12.8154L12 13.2ZM5.63122 28.4852L4.70814 28.1006L3.81563 30.2426L5.98558 29.4203L5.63122 28.4852ZM12 8L12.9231 7.61538L12 5.4L11.077 7.61538L12 8ZM21.1075 29.858L22.0306 29.4734L22.0306 29.4734L21.1075 29.858ZM19.8301 31.1777L20.1845 30.2426L20.1845 30.2426L19.8301 31.1777ZM12 28.2105L12.3544 27.2754L12 27.1411L11.6457 27.2754L12 28.2105ZM4.16999 31.1777L4.52435 32.1128L4.52435 32.1128L4.16999 31.1777ZM2.89256 29.858L1.96948 29.4734L1.96948 29.4734L2.89256 29.858ZM11.6457 27.0068L18.0145 29.4203L18.7232 27.5501L12.3544 25.1366L11.6457 27.0068ZM19.292 28.1006L12.9231 12.8154L11.077 13.5846L17.4458 28.8698L19.292 28.1006ZM11.077 12.8154L4.70814 28.1006L6.5543 28.8698L12.9231 13.5846L11.077 12.8154ZM5.98558 29.4203L12.3544 27.0068L11.6457 25.1366L5.27686 27.5501L5.98558 29.4203ZM11.077 8.38461L20.1845 30.2426L22.0306 29.4734L12.9231 7.61538L11.077 8.38461ZM20.1845 30.2426L20.1845 30.2426L19.4757 32.1128C21.1165 32.7346 22.7055 31.093 22.0306 29.4734L20.1845 30.2426ZM20.1845 30.2426L12.3544 27.2754L11.6457 29.1456L19.4757 32.1128L20.1845 30.2426ZM11.6457 27.2754L3.81563 30.2426L4.52435 32.1128L12.3544 29.1456L11.6457 27.2754ZM3.81563 30.2426L3.81563 30.2426L1.96948 29.4734C1.29464 31.093 2.88364 32.7346 4.52435 32.1128L3.81563 30.2426ZM3.81563 30.2426L12.9231 8.38461L11.077 7.61538L1.96948 29.4734L3.81563 30.2426Z" mask="url(#CCEGJDWXEHpath-1-outside-1)" class="ob-container-background-color-fill"/>
</g>
</g>
</svg>