<svg width="64" height="512" viewBox="0 0 64 512" fill="none" xmlns="http://www.w3.org/2000/svg">
<g id="Size=Large, Type=Circular">
<g id="HDG">
<mask id="KYNAEYGJAYpath-1-outside-1" maskUnits="userSpaceOnUse" x="12" y="77" width="40" height="356" fill="black">
<rect fill="white" x="12" y="77" width="40" height="356"/>
<path fill-rule="evenodd" clip-rule="evenodd" d="M22.8926 101.858L32 80L50.2151 123.716C50.8899 125.336 49.3009 126.977 47.6602 126.355L34 121.179V248.252C37.4504 249.14 40 252.272 40 256C40 260.08 36.9463 263.446 33 263.938L33 432H31L31 263.938C27.0537 263.446 24 260.08 24 256C24 252.272 26.5495 249.14 30 248.252V121.179L16.34 126.355C14.6992 126.977 13.1103 125.336 13.7851 123.716L22.8926 101.858Z"/>
</mask>
<path fill-rule="evenodd" clip-rule="evenodd" d="M22.8926 101.858L32 80L50.2151 123.716C50.8899 125.336 49.3009 126.977 47.6602 126.355L34 121.179V248.252C37.4504 249.14 40 252.272 40 256C40 260.08 36.9463 263.446 33 263.938L33 432H31L31 263.938C27.0537 263.446 24 260.08 24 256C24 252.272 26.5495 249.14 30 248.252V121.179L16.34 126.355C14.6992 126.977 13.1103 125.336 13.7851 123.716L22.8926 101.858Z" class="ob-instrument-dynamic-color-fill"/>
<path d="M32 80L32.9231 79.6154L32 77.4L31.077 79.6154L32 80ZM22.8926 101.858L23.8156 102.243L23.8156 102.243L22.8926 101.858ZM50.2151 123.716L51.1381 123.331L51.1381 123.331L50.2151 123.716ZM47.6602 126.355L48.0145 125.42L48.0145 125.42L47.6602 126.355ZM34 121.179L34.3544 120.244L33 119.731V121.179H34ZM34 248.252H33V249.027L33.7507 249.221L34 248.252ZM33 263.938L32.8763 262.946L32 263.055L32 263.938L33 263.938ZM33 432V433H34L34 432L33 432ZM31 432L30 432L30 433H31V432ZM31 263.938L32 263.938L32 263.055L31.1237 262.946L31 263.938ZM30 248.252L30.2493 249.221L31 249.027V248.252H30ZM30 121.179H31V119.731L29.6456 120.244L30 121.179ZM16.34 126.355L16.6943 127.291L16.6943 127.291L16.34 126.355ZM13.7851 123.716L12.862 123.331L12.862 123.331L13.7851 123.716ZM31.077 79.6154L21.9695 101.473L23.8156 102.243L32.9231 80.3846L31.077 79.6154ZM51.1381 123.331L32.9231 79.6154L31.077 80.3846L49.292 124.101L51.1381 123.331ZM47.3058 127.291C49.7669 128.223 52.1504 125.761 51.1381 123.331L49.292 124.101C49.6294 124.91 48.8349 125.731 48.0145 125.42L47.3058 127.291ZM33.6456 122.114L47.3058 127.291L48.0145 125.42L34.3544 120.244L33.6456 122.114ZM33 121.179V248.252H35V121.179H33ZM33.7507 249.221C36.7701 249.998 39 252.74 39 256H41C41 251.805 38.1308 248.283 34.2493 247.284L33.7507 249.221ZM39 256C39 259.569 36.3282 262.515 32.8763 262.946L33.1237 264.931C37.5644 264.377 41 260.59 41 256H39ZM32 263.938L32 432L34 432L34 263.938L32 263.938ZM33 431H31V433H33V431ZM32 432L32 263.938L30 263.938L30 432L32 432ZM31.1237 262.946C27.6717 262.515 25 259.569 25 256H23C23 260.59 26.4356 264.377 30.8763 264.931L31.1237 262.946ZM25 256C25 252.74 27.2299 249.998 30.2493 249.221L29.7507 247.284C25.8692 248.283 23 251.805 23 256H25ZM31 248.252V121.179H29V248.252H31ZM16.6943 127.291L30.3544 122.114L29.6456 120.244L15.9856 125.42L16.6943 127.291ZM12.862 123.331C11.8498 125.761 14.2332 128.223 16.6943 127.291L15.9856 125.42C15.1652 125.731 14.3707 124.91 14.7082 124.101L12.862 123.331ZM21.9695 101.473L12.862 123.331L14.7082 124.101L23.8156 102.243L21.9695 101.473Z" mask="url(#KYNAEYGJAYpath-1-outside-1)" class="ob-container-background-color-fill"/>
</g>
</g>
</svg>